<mxfile host="www.draw.io" modified="2020-02-21T01:12:03.629Z" agent="Mozilla/5.0 (Windows NT 10.0; Win64; x64) AppleWebKit/537.36 (KHTML, like Gecko) Chrome/80.0.3987.116 Safari/537.36" etag="9wQuMFQcgNuvz_4KhTmO" version="12.7.2" type="github">
  <diagram id="GNU3i8hCxYjH3E0Nk9u4" name="Page-1">
    <mxGraphModel dx="1776" dy="458" grid="1" gridSize="10" guides="1" tooltips="1" connect="1" arrows="1" fold="1" page="1" pageScale="1" pageWidth="850" pageHeight="1100" math="0" shadow="0">
      <root>
        <mxCell id="0" />
        <mxCell id="1" parent="0" />
        <mxCell id="FXCXVvDxTQtwc45PbP1s-149" value="本番環境" style="swimlane;fontStyle=0;horizontal=1;collapsible=0;startSize=28;swimlaneLine=0;swimlaneFillColor=none;fillColor=none;rounded=0;whiteSpace=wrap;html=1;absoluteArcSize=1;arcSize=12;strokeColor=#2A8838;verticalAlign=top;align=left;spacingLeft=30;spacingTop=1;dashed=0;strokeWidth=1;" parent="1" vertex="1">
          <mxGeometry x="330" y="310" width="720" height="310" as="geometry" />
        </mxCell>
        <mxCell id="mle7wP0IT92qCYiC621e-50" value="EC2" style="outlineConnect=0;dashed=0;verticalLabelPosition=bottom;verticalAlign=top;align=center;html=1;shape=mxgraph.aws3.instance;fillColor=#F58534;gradientColor=none;" parent="FXCXVvDxTQtwc45PbP1s-149" vertex="1">
          <mxGeometry x="90" y="170" width="60" height="63" as="geometry" />
        </mxCell>
        <mxCell id="mle7wP0IT92qCYiC621e-60" value="" style="strokeWidth=2;html=1;shape=mxgraph.flowchart.annotation_2;align=left;labelPosition=right;pointerEvents=1;" parent="FXCXVvDxTQtwc45PbP1s-149" vertex="1">
          <mxGeometry x="-10" y="90" width="100" height="120" as="geometry" />
        </mxCell>
        <mxCell id="mle7wP0IT92qCYiC621e-44" value="" style="outlineConnect=0;dashed=0;verticalLabelPosition=bottom;verticalAlign=top;align=center;html=1;shape=mxgraph.aws3.rds_db_instance;fillColor=#2E73B8;gradientColor=none;" parent="FXCXVvDxTQtwc45PbP1s-149" vertex="1">
          <mxGeometry x="370" y="50" width="49.5" height="66" as="geometry" />
        </mxCell>
        <mxCell id="mle7wP0IT92qCYiC621e-46" value="" style="outlineConnect=0;dashed=0;verticalLabelPosition=bottom;verticalAlign=top;align=center;html=1;shape=mxgraph.aws3.rds_db_instance_read_replica;fillColor=#2E73B8;gradientColor=none;" parent="FXCXVvDxTQtwc45PbP1s-149" vertex="1">
          <mxGeometry x="370" y="180" width="49.5" height="66" as="geometry" />
        </mxCell>
        <mxCell id="mle7wP0IT92qCYiC621e-69" value="&lt;font style=&quot;font-size: 24px&quot;&gt;RDS&lt;br&gt;&amp;nbsp;Master my SQL&lt;/font&gt;" style="text;html=1;align=center;verticalAlign=middle;resizable=0;points=[];autosize=1;" parent="FXCXVvDxTQtwc45PbP1s-149" vertex="1">
          <mxGeometry x="480" y="63" width="190" height="40" as="geometry" />
        </mxCell>
        <mxCell id="mle7wP0IT92qCYiC621e-73" value="&lt;font style=&quot;font-size: 24px&quot;&gt;RDS&lt;br&gt;&amp;nbsp;Replica My SQL&lt;/font&gt;" style="text;html=1;align=center;verticalAlign=middle;resizable=0;points=[];autosize=1;" parent="FXCXVvDxTQtwc45PbP1s-149" vertex="1">
          <mxGeometry x="475" y="193" width="200" height="40" as="geometry" />
        </mxCell>
        <mxCell id="4R6QqSdhvKCpwx4tjvkI-6" value="" style="endArrow=none;html=1;" parent="FXCXVvDxTQtwc45PbP1s-149" edge="1">
          <mxGeometry width="50" height="50" relative="1" as="geometry">
            <mxPoint x="180" y="90" as="sourcePoint" />
            <mxPoint x="350" y="90" as="targetPoint" />
          </mxGeometry>
        </mxCell>
        <mxCell id="4R6QqSdhvKCpwx4tjvkI-13" value="" style="endArrow=none;dashed=1;html=1;" parent="FXCXVvDxTQtwc45PbP1s-149" edge="1">
          <mxGeometry width="50" height="50" relative="1" as="geometry">
            <mxPoint x="180" y="90" as="sourcePoint" />
            <mxPoint x="350" y="200" as="targetPoint" />
          </mxGeometry>
        </mxCell>
        <mxCell id="FXCXVvDxTQtwc45PbP1s-170" value="&lt;font style=&quot;font-size: 18px&quot;&gt;AWS&lt;/font&gt;" style="swimlane;fontStyle=0;horizontal=1;collapsible=0;startSize=28;swimlaneLine=0;swimlaneFillColor=none;fillColor=none;rounded=0;whiteSpace=wrap;html=1;absoluteArcSize=1;arcSize=12;strokeColor=#417CB9;verticalAlign=top;align=left;spacingLeft=30;spacingTop=1;dashed=0;strokeWidth=1;" parent="1" vertex="1">
          <mxGeometry x="-110" y="70" width="1270" height="1120" as="geometry" />
        </mxCell>
        <mxCell id="FXCXVvDxTQtwc45PbP1s-171" value="" style="aspect=fixed;perimeter=ellipsePerimeter;html=1;align=center;shadow=0;dashed=0;fontColor=#4277BB;labelBackgroundColor=#ffffff;fontSize=12;spacingTop=3;image;image=img/lib/ibm/vpc/CloudTag.svg;part=1;" parent="FXCXVvDxTQtwc45PbP1s-170" vertex="1">
          <mxGeometry x="-20" width="50" height="50" as="geometry" />
        </mxCell>
        <mxCell id="FXCXVvDxTQtwc45PbP1s-161" value="&lt;font style=&quot;font-size: 18px&quot;&gt;VPC&lt;/font&gt;" style="swimlane;fontStyle=0;horizontal=1;collapsible=0;startSize=28;swimlaneLine=0;swimlaneFillColor=none;fillColor=none;rounded=0;whiteSpace=wrap;html=1;absoluteArcSize=1;arcSize=12;strokeColor=#417CB9;verticalAlign=top;align=left;spacingLeft=30;spacingTop=1;dashed=0;strokeWidth=1;" parent="FXCXVvDxTQtwc45PbP1s-170" vertex="1">
          <mxGeometry x="280" y="110" width="930" height="818" as="geometry" />
        </mxCell>
        <mxCell id="FXCXVvDxTQtwc45PbP1s-96" value="ELB" style="aspect=fixed;perimeter=ellipsePerimeter;html=1;align=center;shadow=0;dashed=0;fontColor=#4277BB;labelBackgroundColor=#ffffff;fontSize=12;spacingTop=3;image;image=img/lib/ibm/vpc/PublicGateway.svg;" parent="FXCXVvDxTQtwc45PbP1s-161" vertex="1">
          <mxGeometry x="60" y="240" width="90" height="90" as="geometry" />
        </mxCell>
        <mxCell id="FXCXVvDxTQtwc45PbP1s-147" value="ステージング環境" style="swimlane;fontStyle=0;horizontal=1;collapsible=0;startSize=28;swimlaneLine=0;swimlaneFillColor=none;fillColor=none;rounded=0;whiteSpace=wrap;html=1;absoluteArcSize=1;arcSize=12;strokeColor=#2A8838;verticalAlign=top;align=left;spacingLeft=30;spacingTop=1;dashed=0;strokeWidth=1;" parent="FXCXVvDxTQtwc45PbP1s-161" vertex="1">
          <mxGeometry x="160" y="520" width="720" height="280" as="geometry" />
        </mxCell>
        <mxCell id="mle7wP0IT92qCYiC621e-52" value="EC2" style="outlineConnect=0;dashed=0;verticalLabelPosition=bottom;verticalAlign=top;align=center;html=1;shape=mxgraph.aws3.instance;fillColor=#F58534;gradientColor=none;" parent="FXCXVvDxTQtwc45PbP1s-147" vertex="1">
          <mxGeometry x="90" y="180" width="60" height="63" as="geometry" />
        </mxCell>
        <mxCell id="mle7wP0IT92qCYiC621e-51" value="EC2" style="outlineConnect=0;dashed=0;verticalLabelPosition=bottom;verticalAlign=top;align=center;html=1;shape=mxgraph.aws3.instance;fillColor=#F58534;gradientColor=none;" parent="FXCXVvDxTQtwc45PbP1s-147" vertex="1">
          <mxGeometry x="90" y="60" width="60" height="63" as="geometry" />
        </mxCell>
        <mxCell id="mle7wP0IT92qCYiC621e-62" value="" style="strokeWidth=2;html=1;shape=mxgraph.flowchart.annotation_2;align=left;labelPosition=right;pointerEvents=1;" parent="FXCXVvDxTQtwc45PbP1s-147" vertex="1">
          <mxGeometry x="-10" y="100" width="100" height="120" as="geometry" />
        </mxCell>
        <mxCell id="mle7wP0IT92qCYiC621e-45" value="" style="outlineConnect=0;dashed=0;verticalLabelPosition=bottom;verticalAlign=top;align=center;html=1;shape=mxgraph.aws3.rds_db_instance;fillColor=#2E73B8;gradientColor=none;" parent="FXCXVvDxTQtwc45PbP1s-147" vertex="1">
          <mxGeometry x="370" y="58.5" width="49.5" height="66" as="geometry" />
        </mxCell>
        <mxCell id="mle7wP0IT92qCYiC621e-47" value="" style="outlineConnect=0;dashed=0;verticalLabelPosition=bottom;verticalAlign=top;align=center;html=1;shape=mxgraph.aws3.rds_db_instance_read_replica;fillColor=#2E73B8;gradientColor=none;" parent="FXCXVvDxTQtwc45PbP1s-147" vertex="1">
          <mxGeometry x="370" y="177" width="49.5" height="66" as="geometry" />
        </mxCell>
        <mxCell id="mle7wP0IT92qCYiC621e-71" value="&lt;font style=&quot;font-size: 24px&quot;&gt;RDS&lt;br&gt;&amp;nbsp;Master my SQL&lt;/font&gt;" style="text;html=1;align=center;verticalAlign=middle;resizable=0;points=[];autosize=1;" parent="FXCXVvDxTQtwc45PbP1s-147" vertex="1">
          <mxGeometry x="490" y="70" width="190" height="40" as="geometry" />
        </mxCell>
        <mxCell id="mle7wP0IT92qCYiC621e-72" value="&lt;font style=&quot;font-size: 24px&quot;&gt;RDS&lt;br&gt;&amp;nbsp;Replica My SQL&lt;/font&gt;" style="text;html=1;align=center;verticalAlign=middle;resizable=0;points=[];autosize=1;" parent="FXCXVvDxTQtwc45PbP1s-147" vertex="1">
          <mxGeometry x="490" y="191.5" width="200" height="40" as="geometry" />
        </mxCell>
        <mxCell id="4R6QqSdhvKCpwx4tjvkI-1" value="" style="endArrow=none;html=1;" parent="FXCXVvDxTQtwc45PbP1s-147" edge="1">
          <mxGeometry width="50" height="50" relative="1" as="geometry">
            <mxPoint x="180" y="210" as="sourcePoint" />
            <mxPoint x="350" y="100" as="targetPoint" />
          </mxGeometry>
        </mxCell>
        <mxCell id="4R6QqSdhvKCpwx4tjvkI-4" value="" style="endArrow=none;html=1;" parent="FXCXVvDxTQtwc45PbP1s-147" edge="1">
          <mxGeometry width="50" height="50" relative="1" as="geometry">
            <mxPoint x="180" y="100" as="sourcePoint" />
            <mxPoint x="350" y="100" as="targetPoint" />
          </mxGeometry>
        </mxCell>
        <mxCell id="4R6QqSdhvKCpwx4tjvkI-7" value="" style="endArrow=none;dashed=1;html=1;" parent="FXCXVvDxTQtwc45PbP1s-147" edge="1">
          <mxGeometry width="50" height="50" relative="1" as="geometry">
            <mxPoint x="180" y="210" as="sourcePoint" />
            <mxPoint x="350" y="210" as="targetPoint" />
          </mxGeometry>
        </mxCell>
        <mxCell id="4R6QqSdhvKCpwx4tjvkI-14" value="" style="endArrow=none;dashed=1;html=1;" parent="FXCXVvDxTQtwc45PbP1s-147" edge="1">
          <mxGeometry width="50" height="50" relative="1" as="geometry">
            <mxPoint x="180" y="100" as="sourcePoint" />
            <mxPoint x="350" y="210" as="targetPoint" />
          </mxGeometry>
        </mxCell>
        <mxCell id="mle7wP0IT92qCYiC621e-11" value="ELB" style="aspect=fixed;perimeter=ellipsePerimeter;html=1;align=center;shadow=0;dashed=0;fontColor=#4277BB;labelBackgroundColor=#ffffff;fontSize=12;spacingTop=3;image;image=img/lib/ibm/vpc/PublicGateway.svg;" parent="FXCXVvDxTQtwc45PbP1s-161" vertex="1">
          <mxGeometry x="60" y="630" width="90" height="90" as="geometry" />
        </mxCell>
        <mxCell id="mle7wP0IT92qCYiC621e-48" value="EC2" style="outlineConnect=0;dashed=0;verticalLabelPosition=bottom;verticalAlign=top;align=center;html=1;shape=mxgraph.aws3.instance;fillColor=#F58534;gradientColor=none;" parent="FXCXVvDxTQtwc45PbP1s-161" vertex="1">
          <mxGeometry x="250" y="180" width="60" height="63" as="geometry" />
        </mxCell>
        <mxCell id="mle7wP0IT92qCYiC621e-57" value="" style="endArrow=none;html=1;entryX=0;entryY=0.5;entryDx=0;entryDy=0;" parent="FXCXVvDxTQtwc45PbP1s-161" target="FXCXVvDxTQtwc45PbP1s-96" edge="1">
          <mxGeometry width="50" height="50" relative="1" as="geometry">
            <mxPoint x="-40" y="487" as="sourcePoint" />
            <mxPoint x="10" y="437" as="targetPoint" />
          </mxGeometry>
        </mxCell>
        <mxCell id="mle7wP0IT92qCYiC621e-58" value="" style="endArrow=none;html=1;entryX=0;entryY=0.5;entryDx=0;entryDy=0;" parent="FXCXVvDxTQtwc45PbP1s-161" target="mle7wP0IT92qCYiC621e-11" edge="1">
          <mxGeometry width="50" height="50" relative="1" as="geometry">
            <mxPoint x="-40" y="487" as="sourcePoint" />
            <mxPoint x="10" y="437" as="targetPoint" />
          </mxGeometry>
        </mxCell>
        <mxCell id="DGDNv-w1i0frMR48nOAc-2" value="" style="outlineConnect=0;dashed=0;verticalLabelPosition=bottom;verticalAlign=top;align=center;html=1;shape=mxgraph.aws3.vpn_gateway;fillColor=#F58534;gradientColor=none;" parent="FXCXVvDxTQtwc45PbP1s-161" vertex="1">
          <mxGeometry x="140" y="110" width="38" height="40" as="geometry" />
        </mxCell>
        <mxCell id="4R6QqSdhvKCpwx4tjvkI-2" value="" style="endArrow=none;html=1;" parent="FXCXVvDxTQtwc45PbP1s-161" edge="1">
          <mxGeometry width="50" height="50" relative="1" as="geometry">
            <mxPoint x="340" y="330" as="sourcePoint" />
            <mxPoint x="510" y="220" as="targetPoint" />
          </mxGeometry>
        </mxCell>
        <mxCell id="4R6QqSdhvKCpwx4tjvkI-10" value="" style="endArrow=none;dashed=1;html=1;" parent="FXCXVvDxTQtwc45PbP1s-161" edge="1">
          <mxGeometry width="50" height="50" relative="1" as="geometry">
            <mxPoint x="340" y="329" as="sourcePoint" />
            <mxPoint x="515" y="329" as="targetPoint" />
          </mxGeometry>
        </mxCell>
        <mxCell id="3B_-IDr4GMDYt_W0upEL-2" value="" style="outlineConnect=0;dashed=0;verticalLabelPosition=bottom;verticalAlign=top;align=center;html=1;shape=mxgraph.aws3.internet_gateway;fillColor=#F58536;gradientColor=none;" parent="FXCXVvDxTQtwc45PbP1s-161" vertex="1">
          <mxGeometry x="-30" y="-20" width="59" height="58" as="geometry" />
        </mxCell>
        <mxCell id="mle7wP0IT92qCYiC621e-32" value="Cloundwatch" style="outlineConnect=0;dashed=0;verticalLabelPosition=bottom;verticalAlign=top;align=center;html=1;shape=mxgraph.aws3.cloudwatch;fillColor=#759C3E;gradientColor=none;" parent="FXCXVvDxTQtwc45PbP1s-170" vertex="1">
          <mxGeometry x="260" y="970.75" width="82.5" height="93" as="geometry" />
        </mxCell>
        <mxCell id="mle7wP0IT92qCYiC621e-40" value="" style="shape=ext;rounded=1;html=1;whiteSpace=wrap;" parent="FXCXVvDxTQtwc45PbP1s-170" vertex="1">
          <mxGeometry x="40" y="370" width="200" height="450" as="geometry" />
        </mxCell>
        <mxCell id="mle7wP0IT92qCYiC621e-39" value="WAF" style="outlineConnect=0;dashed=0;verticalLabelPosition=bottom;verticalAlign=top;align=center;html=1;shape=mxgraph.aws3.waf;fillColor=#759C3E;gradientColor=none;" parent="FXCXVvDxTQtwc45PbP1s-170" vertex="1">
          <mxGeometry x="90.25" y="420" width="99.5" height="140" as="geometry" />
        </mxCell>
        <mxCell id="mle7wP0IT92qCYiC621e-37" value="Route 53" style="outlineConnect=0;dashed=0;verticalLabelPosition=bottom;verticalAlign=top;align=center;html=1;shape=mxgraph.aws3.route_53;fillColor=#F58536;gradientColor=none;" parent="FXCXVvDxTQtwc45PbP1s-170" vertex="1">
          <mxGeometry x="89.25" y="640" width="100.5" height="130" as="geometry" />
        </mxCell>
        <mxCell id="mle7wP0IT92qCYiC621e-41" value="S3" style="outlineConnect=0;dashed=0;verticalLabelPosition=bottom;verticalAlign=top;align=center;html=1;shape=mxgraph.aws3.bucket_with_objects;fillColor=#E05243;gradientColor=none;" parent="FXCXVvDxTQtwc45PbP1s-170" vertex="1">
          <mxGeometry x="90" y="980" width="70" height="74.5" as="geometry" />
        </mxCell>
        <mxCell id="mle7wP0IT92qCYiC621e-42" value="Lambda" style="outlineConnect=0;dashed=0;verticalLabelPosition=bottom;verticalAlign=top;align=center;html=1;shape=mxgraph.aws3.lambda;fillColor=#F58534;gradientColor=none;" parent="FXCXVvDxTQtwc45PbP1s-170" vertex="1">
          <mxGeometry x="430" y="970.75" width="76.5" height="93" as="geometry" />
        </mxCell>
        <mxCell id="mle7wP0IT92qCYiC621e-55" value="EFS" style="outlineConnect=0;dashed=0;verticalLabelPosition=bottom;verticalAlign=top;align=center;html=1;shape=mxgraph.aws3.efs;fillColor=#E05243;gradientColor=none;" parent="FXCXVvDxTQtwc45PbP1s-170" vertex="1">
          <mxGeometry x="630" y="970.75" width="76.5" height="93" as="geometry" />
        </mxCell>
        <mxCell id="mle7wP0IT92qCYiC621e-56" value="" style="endArrow=none;html=1;" parent="FXCXVvDxTQtwc45PbP1s-170" edge="1">
          <mxGeometry width="50" height="50" relative="1" as="geometry">
            <mxPoint x="-70" y="593" as="sourcePoint" />
            <mxPoint x="40" y="593" as="targetPoint" />
          </mxGeometry>
        </mxCell>
        <mxCell id="FXCXVvDxTQtwc45PbP1s-94" value="Internet" style="aspect=fixed;perimeter=ellipsePerimeter;html=1;align=center;shadow=0;dashed=0;fontColor=#4277BB;labelBackgroundColor=#ffffff;fontSize=12;spacingTop=3;image;image=img/lib/ibm/vpc/Internet.svg;" parent="1" vertex="1">
          <mxGeometry x="-310" y="603" width="130" height="130" as="geometry" />
        </mxCell>
        <mxCell id="mle7wP0IT92qCYiC621e-4" value="&lt;span style=&quot;color: rgba(0 , 0 , 0 , 0) ; font-family: monospace ; font-size: 0px&quot;&gt;%3CmxGraphModel%3E%3Croot%3E%3CmxCell%20id%3D%220%22%2F%3E%3CmxCell%20id%3D%221%22%20parent%3D%220%22%2F%3E%3CmxCell%20id%3D%222%22%20value%3D%22ELB%22%20style%3D%22aspect%3Dfixed%3Bperimeter%3DellipsePerimeter%3Bhtml%3D1%3Balign%3Dcenter%3Bshadow%3D0%3Bdashed%3D0%3BfontColor%3D%234277BB%3BlabelBackgroundColor%3D%23ffffff%3BfontSize%3D12%3BspacingTop%3D3%3Bimage%3Bimage%3Dimg%2Flib%2Fibm%2Fvpc%2FPublicGateway.svg%3B%22%20vertex%3D%221%22%20parent%3D%221%22%3E%3CmxGeometry%20x%3D%22288.5%22%20y%3D%22379.5%22%20width%3D%2260%22%20height%3D%2260%22%20as%3D%22geometry%22%2F%3E%3C%2FmxCell%3E%3C%2Froot%3E%3C%2FmxGraphModel%3E&lt;/span&gt;" style="text;html=1;align=center;verticalAlign=middle;resizable=0;points=[];autosize=1;" parent="1" vertex="1">
          <mxGeometry x="303" y="564" width="20" height="20" as="geometry" />
        </mxCell>
        <mxCell id="mle7wP0IT92qCYiC621e-10" value="&lt;span style=&quot;color: rgba(0 , 0 , 0 , 0) ; font-family: monospace ; font-size: 0px&quot;&gt;%3CmxGraphModel%3E%3Croot%3E%3CmxCell%20id%3D%220%22%2F%3E%3CmxCell%20id%3D%221%22%20parent%3D%220%22%2F%3E%3CmxCell%20id%3D%222%22%20value%3D%22ELB%22%20style%3D%22aspect%3Dfixed%3Bperimeter%3DellipsePerimeter%3Bhtml%3D1%3Balign%3Dcenter%3Bshadow%3D0%3Bdashed%3D0%3BfontColor%3D%234277BB%3BlabelBackgroundColor%3D%23ffffff%3BfontSize%3D12%3BspacingTop%3D3%3Bimage%3Bimage%3Dimg%2Flib%2Fibm%2Fvpc%2FPublicGateway.svg%3B%22%20vertex%3D%221%22%20parent%3D%221%22%3E%3CmxGeometry%20x%3D%22288.5%22%20y%3D%22379.5%22%20width%3D%2260%22%20height%3D%2260%22%20as%3D%22geometry%22%2F%3E%3C%2FmxCell%3E%3C%2Froot%3E%3C%2FmxGraphModel%3E&lt;/span&gt;" style="text;html=1;align=center;verticalAlign=middle;resizable=0;points=[];autosize=1;" parent="1" vertex="1">
          <mxGeometry x="134" y="989" width="20" height="20" as="geometry" />
        </mxCell>
        <mxCell id="DGDNv-w1i0frMR48nOAc-3" value="" style="outlineConnect=0;dashed=0;verticalLabelPosition=bottom;verticalAlign=top;align=center;html=1;shape=mxgraph.aws3.vpn_gateway;fillColor=#F58534;gradientColor=none;" parent="1" vertex="1">
          <mxGeometry x="310" y="678" width="38" height="40" as="geometry" />
        </mxCell>
        <mxCell id="4R6QqSdhvKCpwx4tjvkI-16" value="Untitled Layer" parent="0" />
        <mxCell id="4R6QqSdhvKCpwx4tjvkI-27" value="" style="edgeStyle=orthogonalEdgeStyle;rounded=0;orthogonalLoop=1;jettySize=auto;html=1;" parent="4R6QqSdhvKCpwx4tjvkI-16" source="4R6QqSdhvKCpwx4tjvkI-19" target="4R6QqSdhvKCpwx4tjvkI-20" edge="1">
          <mxGeometry relative="1" as="geometry" />
        </mxCell>
        <mxCell id="4R6QqSdhvKCpwx4tjvkI-19" value="Sendbird" style="text;html=1;align=center;verticalAlign=middle;resizable=0;points=[];autosize=1;" parent="4R6QqSdhvKCpwx4tjvkI-16" vertex="1">
          <mxGeometry x="721" y="1141" width="60" height="20" as="geometry" />
        </mxCell>
        <mxCell id="4R6QqSdhvKCpwx4tjvkI-20" value="" style="shape=image;verticalLabelPosition=bottom;labelBackgroundColor=#ffffff;verticalAlign=top;aspect=fixed;imageAspect=0;image=data:image/png,iVBORw0KGgoAAAANSUhEUgAAAZAAAAGQCAYAAACAvzbMAAAgAElEQVR4Xuy9B3Rk5ZXv+z/nVFRJ3U1ODdhkYzAGDAYMNhgbDBiwwWGcx3lm3jzPrHlvvVn3rbfeunetO++Oxzkb29iAyaGBJhiMSSZjgskZTJOa2C2VVPGE9/33PqdKrU7qakldkvYP1Kp4VHXC/n87fPvzEgcMwzAMYwPxJz5gGIZhGJPBBMQwDMPoCRMQwzAMoydMQAzDMIyeMAExDMMwesIExDAMw+gJExDDMAyjJ0xADMMwjJ4wATEMwzB6wgTEMAzD6AkTEMMwDKMnTEAMwzCMnjABMQzDMHrCBMQwDMPoCRMQwzAMoydMQAzDMIyeMAExDMMwesIExDAMw+gJExDDMAyjJ0xADMMwjJ4wATEMwzB6wgTEMAzD6AkTEMMwDKMnTEAMwzCMnjABMQzDMHrCBMQwDMPoCRMQwzAMoydMQAzDMIyeMAExDMMwesIExDAMw+gJExDDMAyjJ0xADMMwjJ4wATEMwzB6wgTEMAzD6AkTEMMwDKMnTEAMwzCMnjABMQzDMHrCBMQwDMPoCRMQwzAMoydMQAzDMIyeMAExDMMwesIExDAMw+gJExDDMAyjJ0xADMMwjJ4wATEMwzB6wgTEMAzD6AkTEMMwDKMnTEAMwzCMnjABMQzDMHrCBMQwDMPoCRMQwzAMoydMQAzDMIyeMAExDMMwesIExDAMw+gJExDDMAyjJ0xADMMwjJ4wATEMwzB6wgTEMAzD6AkTEMMwDKMnTEAMwzCMnjABMQzDMHrCBMQwDMPoCRMQwzAMoydMQAzDMIyeMAExDMMwesIExDAMw+gJExBj6kgSIF7lgfQnvZfE7id7jD/x+KfdzVXebBhGn2MCYmwcIgAUBmf8PS89o+JUF7z0h+KRuKd998Nn+FgqFl5XQzw7HQ1jVuElOiQ0jB6heFA7fBECL5ODhCLBJ9K78rDekX87j1NYsjvdxw3D6H9MQIyNRgWEN9IH6GXI/54854sj0vUzJJTlfnfERm6nymECYhizBhMQY6OgFKjv4QSDKQ3niYhg6CPpbw8r34gRhgnyBWDh5gxVZS9StyMWT4SyYmEsw5gtmIAYUwDDWGl4yqOHkeD1ZSEev6eFpx9toLrCR7sVuccDeH6MIPCwzQ4F7LhngHceksfmW1M0fMRx7MTHNy/EMGYJJiBGj3RPG8mfi9uR4JVnYtxxTRUP3hlqxRWfo3fB593/cUJvI0YuTYTkSx72O7yEgz9cwlaLc7Ithrs6eRHDMPoWExBjkqRhKvnXS7PiGn6irY9CD7dcWcMtl9fRrkdOGHwVjlQHusEs3nHehvtPw1UxmnUPlc0SfOgTQ3iPExK+WvMqmkNhaCv9S+lWDMPoB0xAjEmRVUsxAZ55B5mRHxsGlp4+jIfvaKA4kIOXc69tudf4a57XIcl10aAEvnt/4AQijIB608ORJ5Vx1CllFMp++jfT9yQqVIZh9A8mIMakUGPOU4VeQ+YRAK0mcPZ3V+Lpv7ZQWeCMfqhJ8NiL4Kd5kTURM9eRnnp+6sW4N6AxGmHvg0v46NeGMLTIeSqhE6xAhSr1XwzD6BNMQIxJ0A1X0XWgfMSxTgy86nejuPOPdQwMeojb7hnfk4pdpjzWdmpRDPh+vjbbtscEu8ewlodWI8GOe+Rw0jcXYOsdAvdatz0rzjKMvsMuS2NSMOwkAkJhcAY9CHw8cW8TD9zaQLHkPIpIhcFPdYbJ8rVB8fB95kjUCWF4SmQk9hC5t+Xc9l56JsKZ/3MYzz7cEvHQ103ckmEYmxITEGMS0KugkddeVhSKpvMSKB61sQh5PxDrHqfCwdeuEz+d9yGeB1+vpbsyD4RzSdx9vwDUqhHO/f4I/nJDbVwuZNVNGYax6TABMSYFw1YiIAxdubPmpadDPH5fiMqAj4iPgfFQJtiZOGcoas0JdMLqLA1dUUuYSI+d55KGstIfpzAIcu6RMMFVp4/i+vNrnaQ6PRgqiWxhNUFhBRf/9mpPGIYxxZiAGJOChttHDn7ACX8JHr234byQUMQka4w4riHJeln9dWnsS/5VQeJDdG5ygYeblo7hop9U0Rxj+IseDJ93giaC1d2GiIzK2bjHDcOYDkxAjEmhOQgd2VdXxHjq/hbKLLVdu6MxJegkRaBQ8PDwnS38/r9WYuWrsYgIQ12cU9LxNhLNw1DtNIFvXohhTCcmIMakGD8z/NVlIV5blkhLkrVVWk0l/BN0NIolDy8+FeLMb6/Es4+kyXVWc8lHoNJkr89Kjs0LMYzpxATEmASaV6CG0Fg/91goTREljDRDRjrxY22BUszjzeUhLvjhCB64tQk/0Dkk9Eakmks+0/SLmmEYJiDGpKCRTk8VZ5tf+VsEPxfJ42m2YtrREJqHKG6jWPbRGkuw9DdVXHvBCPTz6YvSCJY8ZhjG9GICYkwSDQlx5vnLz7Tg+SyRyh6ffnyZr64CwcqsXDFBHCW4/bIWLvzpCNoNVoc5gaGuyWltAmIY040JiLFBvPhsG1E7HfGvUgE13XDdEehERd6LPeQCJtcTPHpbE+d8v4rhN7VVfCQqMj6J3hU5S64bxtRhAmJMChpsGt7qm1mnXGek40070pewlvsdlIGnHmjirP+1Ai882ZZZ8lodtqbPJso38UHDMHrABMSYBFQMDWG9/hLX+eB0cXbU7ZPRfORLL67XX0xk5vpfb2GITQVPS49TwehUZxmGMRWYgBiTgIkHHblXV6RhIK+P2qs7kYjbHkoVD/VqjKW/GcPNl9b4hCT/udKhlvn2ywc2jLmBCYgxCTJPI8Fby9vOII83xJt+RK+VV4nkPvIFptojXH9hDUt/W5XOvmzcGEm4jeKnnolhGBuPCYgxCdT7oNlt1rVwl52ovJhNQzb9KcT0Ovt0IUlbv7tPVSj6uOMPDVz442GseD1C4Cfax0tWN7ReWYYxFWz6q9/oeyRi5c6U2gjQbkcSzZJy2nSp2U0O1xFhV18t9IU0ckxiDA76ePzeJs777gheeDqSvIisY+KERkWRr9Pvp+h9wzAmhwmIMWnazUgMtNReSQv2/kiid7uWhOBq63qHHoeHciXA8mUxLv5RFY/e1ZRwlnQWzqq0WIrsfjpSOKOlyYYxuzEBMSYNRUObG87cDPQNY9XPJCsfRkChHKO6oo0lvxjFbVc39Ek/bQsvHgvoTumD0pzRMIzJYFeLsX7SyXdvvpqg1dTbmhHpRxHpEieReidc5jDPFvAe/nj2KK4+u4owTa5LgVbCrAm/ZpKWJhuGMRlMQIxJoEn0VovzKli+y6aFUSos/Ssikg3xdaVE+ceLEBSAO5Y2ccnPqxhZwbbwFBomeUw4DGNDMQEx1ktmWmX2eZLep4jIrf41vJ3PnWidlicJdKA8qGuLnP+DUbzyXKgLVMk0ET7fv4JoGP2GCYixXjomVSZcpOErhn2yDr19imQ14pzc4iK7/Ly8RbEoDQIvP93COd8ZwWP3cG0RdvqlzBiGMVn62wIYfUHXqHrwsySzjNY1TNTXeKEInkqDhtx4P4486ehbG4lx8U9Hcdc1dQRSXhanDRcztCrLhMUwVscExJiXsNw3jgMg724lIa46q4obLhpFEtGzcoIh2fU0zdMRH5MRwxiPCYgxL5EyZNYkRwlyno+CE5IbLq7h8l9WUX3LOSJSocVVGHmJzI6qM8OYaUxAjHkJ25kETg/YtJdVWLEfY2Agh/v+XMd5P1yJ5cuy5LoKh65GYhjGeOyqMOYl6fqGiCWR48GPKRYxioM+XnwywoVORJ64nzPX6aiwaMBCWIYxERMQY14i4pGFpagP8o+HqA3kSx5WLE9w0Y9H8dCdTQlnyXusxNcwVsEExJg0DPtkJlRqmToJ5lmIF0tFGZfIlfyGzGsBAqnCipAr5BCHCS78URU3LKlJ1ZYm1/Xt+q2t+aIxvzEBMSYPe2HxP3bhZduPWdwWXSYMcmJk+vk1kkVB8KXnVxSzBbyPYsHDjReN4fJfj6A2GktXYs2LpNMo5T3jt2wY8wcTEGO9dLwO6Vqr3W7ZzkSXjZ1jYR0qicwHYchK1w8pFD3c/2eduf7Wa234fiYazKSoqBrGfMQExFg/0icqxhZb51Eo5CWMo5Pt5qCAgN9N+pqId8GvyVBXuZRg2SNtnPkfo3jpuUjCWYjTtvBzbxcYxqQwATEmAS2kj3wxhhcwfCX2Vcpf5+Lo2+d/kuvQvIh8z9h9/3KEFW+EOOc/q3jglpYuUMVXzL1dYBiTwgTEWC8y2oZWJ4mApEZT1wCcY8Nv5ncYvoKueJIgQMKOvgzeUUQKHmpjMa741QhuWzqKIGsqaSJizENMQIxJQa9jYDBAkKcHohVJUpU0xywnv5tM+5DoHHMcXFMkFROKS+whl1ORue7CBi45baXzVnx10ubWrjCM9WICYkyKrMFgPu+Makyzqswx/0O+j/M5JDXOBIfoiDyTSMmvLJmbrolCIXnwphZ+9z+HMbKiLS9MW2hNEBMtDZaHTWSMOYQJiDEpMqHYevsifD8tf+XIe85JyGTgHBgN3xVKwPOPtXDGf4zib0+yLTwQhVluSNVCc0a6n8RrMxEx5ggmIMYkoMXTofXgIlYo+WoE/TB9br5AEdBLRoWAQuKjUPbwxgsRLv5JFY/8pYkgx7Yoqd8ipcDqx8jcGbnf3aJhzGZMQIxJ4CyeF8itLbYLEAQawmFlkiYL5gv8rplnkXkXHqIoQbHiYfStGJf9fBh/Xlpz+0ieTd+3at7IMOYKJiDGpNCC1gSLts5DKpXcCFvnEc4nD4R0RYE/nFxJUQijGPm820tRDtefN4Yrf1dD1ObaIuqNyCTMjtjydpYsMYzZiwmIMUk0DLP5tpA255mg6OPzEd0fGZw7ErF8ywkqy53vuraG8384jOqKWJfLlV5aKhrZPBrDmO2YgBgbxIJFPipDrFHSkfd8yoGwrcmqwtH97j6X+HU/MUUijlEaSPDo3U1c+KMRvPK3UMJ+9ERUPHjZ8Wf+7DtjbmICYkwOj+bOjaYDH9u+LY84lMj+vDKBWso88af7HP0ylvpKwC8CKoOeVGid818r8MS9XFtEdqK6INm+62xzPBPvG0Z/YgJiTA6OnPmfG2FvvUMgiyzpKn0Wi1kbnBNSqPgYG/Fwyc/GcNefGtqAUgoQVHBWzyFpwt0wZgMmIMakkPYeaX+obXdxAiIxfTN06yVyMltIEEYRrv5tFdeeMyb7UdZcl7mF2SWoQmL5EWM2YQJiTI7O7DdPPJBciXNB+JhVE60PVqzR88gVgD9fVsNFP6tibJjhQKcv6e7T3ZvNGTGM2YEJiDEpsslwpDQIbLOTj6jtRtdm8NaN2z1BEsjaVRSJ8mCCB26p4bzvjeK1F7holYa6uk0pGcJaZQuG0beYgBiTQrwNsXGJNFVcvGsBYSvRxLCxVrjfIrTBielcV4SVWAOVAl58uoVzvz+CZx5i+5O0o6/sYOZFJm7FMPoTExBjUkgJqxdL3N73E+ywSwEt54Gw1bmeRlqWmjVdNDK0Z5ZcaJ6WHSRuJxaKCYZfD3He91firzc3O6Er1enx9W3jQ4QWLjT6CxMQY3K40bP8SNWQj6139LHVdnmEzfFJXybWOfta254YHZ8CmiTPRIFri0ByIknkY8lpI7juglGEbe2TFbNAYYKMKHa5Gv2FnZHG5EgnyvlpI8XNt/Ww7U45tJt8jiPjbHTMyXJs1WGeyPqgUCS+j1we+POSMSz55RjqVSbXE/H0VEYoP9yXsbonhtFHmIAYk0LmJrD7LEfPUYJyJcA2O/uIIq6ZoSW92t+JP9ZxdlJQkGUBEQ/FcoBHb2/g/B+P4M1XoCJCFZF9nvovtk+NPsMExJgE6QhYGgcyyasmbftdcqgszMlSrzKtkHWpAi2dnVrrJdGooC5exSWDgeceaeHMb69wv9uyP3XNdSfICVdHNAUx+gu7yo1JkE0a1LkfWnkVY7f9SthyOw/tVgimiWM2E0xfn0X+jbXjy/K5smiu3KfDURjwsPLVNi78cRX33tSUMmnx7iZkQwyjHzABMSaH2C8NTYk/EvkolRNst3MpfWy8gRufEzHWRuR2nPPfkEvYhNHtQXefc2sK5QDNsRhX/mYYN1wyKrkSakxXoMezpscMY2YwATEmR2ciIdcByTwSD+84OIdCKdAZ1dLmXSIulkSfBFxfPcttZOutB9BGjH7ek8aVNy1p4PLTq2hUIZ6fiki6b2Ufa4jLMDYFJiBGT0hHcseu++RRXpRIzyePIRkvcgYx15nXYGw4DFhJ63e3CwsFD/deV8eFPxnBilfDVERUoOmxyCWc5qQMY6YxATE2Cj/nYa8DStLvSSq0krwzbO2JLzM2AClISNganmIRoTzo4+mHmjj3e8N48Ukm11UuvM6qhuka9YYxw5iAGL0jRivB/kcU4eU0lMI6LCbUbcnWjYBJczbPAqOCAUK3K4tl4LUXY5z9/ZV4+E5NrkvQKw1pmcNnbApMQIzeEaPlYasdcthtvyLCkIbPWbuYs9HzE19tbABseiIz0Z2OBPLbQ1D00Rj1cenPq7j1ijERD3b5Ve/DFMSYeUxAjI2DXkfOw7sOK6EdOoMWOEMnFUXmgfQKc0m8MLkPpYOMTOKEFLb5udiJRoLrzqvhmrPH0KprhwBLgRibAhOQviJJQz+TsQbpaySCsb7XT18bjGyzb987h512C9BuqEGzKqyNQdVC+lfKPxqiYpUW78aej3wujzuvbeDCnw5jdAXkNeP3ud6y42BMLyYgfUXaRC8rz0zRORb6kySRTDiTKh0+xpG+BMATWSZVul9kLUVk2Vne1pLbidudClhtxb9ZWehh74OL0lwxCab2b8xX5GxIuPRtF10ZMnYi0kapkODxe1s467sjWP58qBMO07FCekaoABnGNGEC0jeko8VsjkXnuqcBoTgAUcjnAlnJjpU4NDDtto9WS0WC8XA+x7dLoz59VLeim576ESm3KSNkD7u/u4jNt3Ofp5kgsJD89JC1NOHaIu5noJjD8udCnPGfw3j4Lq65rgMJPcy8vO1AGNOHG+BMtUUxeoddbCkSvK3mn0dH24eo1q94I8LrL4V446UYjdEYb72mXsWirXwUB4Gtt89jm8V5d58biRFFPoKg25SP7danHvV8fKcaV/x2DPdcO4bCgC+GzJhqmFznBET1MZz/Jx2S2RmAYawPf3YQh3ykJAl26Tgj55KJiDE9mID0FRQQ/u5c+ZQQcR2G32zjnuubePL+Nl57MUKtGjth8KQVuI446Y3EKFY87PC2AnbZJ4f93z+ALXfQOQJZKIMmZ+rNiY566QG98UobZ/yPUVSrEQr8bHZ2TTEcVMTMhkBnc+oiVXKeuP/bTsgPPb6Mj3yuIo+K6yojkqk/6oZhAtJXqDehRoLXvV70t11Zx91OPFa83BYzUHSjewQ02jor2WdbcCZR0/c1G7E8t2irHN57bBGHf7QsRkRGpeKATJ0x4emTfc5s+1f+Zgx/ubGOPCt57eyaYnSOjeSeRER00CH5Et5150FjNMF+7xvAR75cxtDCQDVkOhxPY95jAtKHZKP5di3BJaeP4Ik7m4icIBTKfFJDQwxiyMiTsXCZdJa1Uo+1W677CettxEmAvd9bwklfHcDAUJAa+akTEIGDXzFkjM8DK98M8Yt/X4k4TJ80pgx3dKUaS4WbdRLam6yDqggatRA77lbEyV+vYNu35RCFWm5tGFOJCUgfIVVVYhh8DL8ZY8nPRvHcow0Uijq63LAjRUPC1iJAq+Fhxz19nPLNhdhqh0AWhOKCRZQgNSmiAD06Jqt+qMxz+sM5Y7h9aR3FcqIFYWLXaPH4XfieDfoyxnrhweMP96sTFT92nqiHzbbwcfxXh7DH/nkkXPwr0LAXX6M+a3bQ08dSYVJ6OiGMeYQ5tn1DIhPI6GE0xhKZJPbsIy3ky+pZbJh4QOwBR6e01Wy7/tIzCc78rxV49uGWJLuT2FfdSEWr94l/arhoeLJVC8mhx5Sw2baQNb8T6dLrd8TD2pxMB6vuVxZPFIoJhlfE6doi9VQ8eLhVwFki3BVyrdzqzuEx8TDWjwlI36CjR5ZhPnhbEw/f2kS5kuhy471AQ0D18BgD91AqRBh9HTj/h8P4680s91RjQaOunsjGGYysciwzQAu3DPDeD5dRG4sQsFd5ErnnOH9BrNTEtxsbTZYD0SQ79zDnCuUKzgsNY1x22ihuuHBMCi3Ge7Mi+qn3oY9rSt4wJoMJSJ8go0dnYBm6+vOlNWmeF8oAMRshbiCepFUh2RLnAUSRJyPSqAVc9uuqMyY1ZILV65/oQpVLTyUxYPwVY7/3lfH2dxbQZLuNIM3RMJZlBmqa0EIJEQKuc8hj4TwRL4hRKnm48ZI6Lv/FKGqjFAtdDVGPhIoOjyMHAKbvxmQxAekXpEwmwP1/rmP4rVi724qx7fEQMaHNuR9MsCdc8c5DyLkanGzoNnvT5WO45DQ1JqycikWteiUd9Yrl0SQ9Jz0ObubjiJPLyBUpYO4ZcXsolBvzt4y1k4UIeUwp2FRyzXRQLIoDHh64vY4Lv1/Fqy+0JE8SS6UDRSMrwtDtGMZk6NE6GVMNfYWwmeDhO9rIFSAT87g6XeRLKdMGw8osmoEg4VbSmepi6N2/TjHyeQ9/vbGB8743gjdebsu6HiwJ3lB05JqFP2KqBB+VGfGxE653vKeAPd5dQtLmQlOsFnOvFWE0phaKsnqCnWMhqJfBYxEnEYqlAM881sI53xnFsidid5xysuaIeqEWvjI2DBOQGUViUqs9Jolsx8vPRHjzlVBKeLVQiS1BerugdZCvf0+6u3oanugky922y+UAf3ukibO/N+p+c0TaeUv3U46/vQa6Kw+q4VL7oyESiiJvf+hTA6hsxlJSfVxGxRLn4v9ZYtf99PhdDZLuWxERva/JcDZglBVa0gFEglIpwYjzcs/57ggeuJXHXb2Vbihz/Hk64eiv62Qw5h0mIDOKWtiscrpT7ZLmBR64oyEXaFbmKpW1PXgFRE1xerWrzVYknMUwEr0cJyKDHt56NcR5PxzFw7c35fHEC5mBXf29a2S80R9/Omk5Mv/eFtsHOPLUMhIueyvf3z3N9hvgV6fh6rHSzBhHVj2lt3X/d5+TM4znFu+5HV/IJ2g3Y1x62ghuuaShgu9xKd1MSLqCkglR+qg+aBgwAdkk6IWd5Qz4gBrP559qIoqyiz+nxnUVA72x0BsJOIldSzg9dtJNpOVIoxFjya+quOnSmlRt0QvS1e74rl5UbPx3S3DgkWXsc1AJTaeRQZ65GbfthEsl8TbXuGDOppe/Y/QCxwdshcNT8Lolo1jyi2FpgqlrrtN3TD1KlZz0N0+ZqTwfjdmOCcgmQy9EXsgc+b36XIRG1YOfy56PO57J1KFVWTzsWq6pYsUVBAvSPjfBjReM4fLT6jIXRYwJvYaeP0JmeNglOMEHPzmABVvGaDkRyWWGSarPOPKlwer5Dxk9wI4GPMY55408cHMLZ/3PKla+wR5riTbCTEJ0iiPS+T02h8cYjwnIJoCDf62/l3vy7ysvNNGouVGhVGN5EmYSGz/FIQPJg4DzMZhaVwOfTQLkJyqUPNx/Yx0X/GhYQlsy6VA/SA9oFkT6NTml3HJxDh/5uwX692SMO86/4hyRnv+O0QtyFES/AxQGgBeeaePM/xjGS0+HqSfC+UG6tG422Jiebs7GbMXOhhkluwg1dMDbrLaioX352RjNsbR8l+W3zAtI7HlqBYR/q5NslfVSWaWlYiJ9tdyfY0ffZx5McM73qnjlOS5UhB4/hgSoJIlLIxVFMd7x3jwOPLqERssXI+VlvgirxnpN+Bg9ob4hO/tGUuLNeUJvvabJ9cfvbrvBg68v4nlizqGxBkxAZhS9ZBUVB+2Oy5YTbURp4lr6EXXyDlN9iDxpY8K0NSuzpCLKp3zQK+F9SOPG8kCC159v4+zvDeOB2xryuHpOE7e3LkQ+5Df/IAUjyPs49rOD2P7tAeoNjnRZJeRGujLaNWYW5p+ckDuBl2LvyEO+qEsFXPSLEdx0yai+Kj32piLGRKbaOhnrhcKgwSMmKxkiataA5qgbi+fcAUlo2NXsam3SVI/K6QGJ25NCA65zTvi3mVxnfRS9BU48q62McMWvR3DrFTURNhGcLLkuoSjdhghix2PqqoyYnNTuaCzdeThlD6d8YwiVhTm0WqlH1puLY2wkss66HB8eB3cM2LGgwNUvI9x4SQOXnVZFS9a5h+TDsmPdOVpyIz3+xrzDBGSGEWlg/qOTAwGG34owOhKB3T42bIQ/vTA+nsupx3L9BU1c+btRtGlMfIrfeMOveZtMKNb1HTQclmCbnQOc+PeDyOe0NTk3Oi4jYmxC6Ajn3LkYOCG57+Ymzv/+iHRHYCGErHwIhiR53NKBCJcY4C8TkXmHCcgMI6lqehipIeVlVx+FeCEM8fTbJSi23X3WIBfhrmvquOSnoxh5S0NvWUGOJuGzTy5fbJ0DUvnWToDeeUgBh5ww6Ea4kduernFi9AmSH0tkKYEn72/h3O+O4uVnI10GQI41c2m+TkyVsYP+Z8wvTEBmFBUMXm46etPdz5hzo6Yj+368BDlng1GrgSEPj97dwgXfH5ZZ8/y8zJfIdxJF1IouqdRZV0JcYyay4BR7Ze37/jJqI7Eb9fbjt5+vJJIboTdSHsrhlaediHyviofubGkoEvqc+KDrcjmNOY0JyIySGdmsEkrFpFmP3CicKwnqiL/vSPUhCn0UBhM8/3SI839cxZP3tKDrE2n1lnwb0YD1fAlujxVYPpO2Hk76SgV7vKfoRFT3gbHpofzrgCZGGLZRcsd9dGWEy08bw21XOXfZ0zkksnqmvGM9x9yYk9jlOtNkg3WmL1O1qI0maNQ5G7s/R+D8VBQIqQyLNAk+8laIi35exV1/rIuhCTjXIw1tkHXlM/T7awUYFZPb+/S/LsQOuxRQH2OsHdyOzC4AACAASURBVGaPNjlsCM+D4Es/tijKIyh4sqrhdeeN4sozqmg36TX74on05cDHmHZMQGYcXmkaR85MbM7nOtcylB/3uv4ikEZKnuiDHyXuM3vSAn7p6WP403k1tBu+tInP2p/Id9Rfq5CFO7RVhs6HoUdWKgOn/OMgtt2ZIuL2TWf9bpaa6juy++N/bPb69CBnZHoAJQ/GkQP13j3IasE7rmji0l+OyPo1KvhyIOX1qzLxvjGXMAGZUeRKhBo+yOiNjI22wYWdxldm9R3y0RN1GlKDzrLPSjnCDReP4bJfVTE2rMl1aX9Cgeh833QTsiqhGpTuw7ov+NKtd8zhk/8ygK13zqc5oTS+ziR95x2ZeCi9z5I31k12nNKCDzn2mheJ3D6vDAV46LYmzvvBCrzynObDtJg3KwThcdM8mEnI3MWuvk1Fogs5kdFhNrbjhTb7LrUQAQYW+M6Y1HDRj0bx2gsckfppLyWI8e8Yo7RNyxpNiqflo1svLuDT3xrCNjsFqNfZG4wmKecM1/hTNZt30N22MVPQdwTa7mCVBnJ45akIF/5oBE/c33IeaOqFSIGISI/87uNhkbGRmIDMKOnoWWweL7LU+MkVNksvMwldxCiUPfzt8RbO+vYwnntE1zTJRqMatdJQiLLm75p5L1sv9p2ILMB2FJGGe20QpW3fO68c/zZjRuEcEA4G2LssQrESYMUbMS76cRV/+VMzPcPZrFO9Rj1k66jIM2Y1diXOOKmfkcbuu17Hmo1qvyOt9qR3ly9J1rGVEX7/7ZX46811ERYRST4vM57X7y2o9+Jjq8U5fPJbFWy3Qw6tGlc45PvHn67cX3b6bgq48JeU77qf0HkizInQfbz8tBFcd34NTS4rI90UsuNtx2muYkd2htF5EjSqGs4RB58zeddvW/sSLpzLZomEQhJoXS8u/VUV119U0z5XfDoOUqFZ9xcVQZXsLT2RPD79LwucmBRQr1Jcul6bdjPW1xkziU741EMeu0PFc1nGCCgNAjdfVsdlv6yiVtUxEhcRM+YuJiAzTHcRqXEXliw3Ozvd/CDRJoyaNmelDhPpPgo5H7cureMSNyptNjTJSiujXsTajYqEQMQ6caIaW8AH+Py/L5B11UVE/FSAO+Kx9m0Z04N4F6LzXPRMV5akoMcJ8yI+HrmjjvN+OILXXmI+TCccGnMTE5AZR42jDuH0ytJbszTZ6GXBpNRKiHcVy+x1rjz44M1NnPG/hrHyNc5zoaEZX1FF0gYm8o9MX9MNgmLhS7v7zbby8cl/HcR+R5XQbHmI+LI0xyLx9pjSxaV608c8XTZL073GVCNNN3nDi8QDYRhTOpnFKvrMizz/aBNnfXslnn2Qa67rPCL1PjlphG82VZkL2BVmbDRrFL40rBWUPbz8ZIIz/r8VWPa4tsFgkY5EPsSgpKcgX56+ZzycY8CXlSsePvFPQzjixLLE2+PQE0smvg+9EtmOeiNcS0UDhGakZpLMu4wiD8ViDqNvxjj3xyOyQBnnCMkhZhgzO8zmPM56TECMaYF+hpbyxsgPJBh+PcbZ3x3Gg7e3dOKZWA/mRFLDkv6sCZ0noinZD/1dBcd9eRCFUoyIy5TIEsAaUuEL1PMQdRq/CWMG6Cx/K/tfk+txE7js9FHceDHbn6QTP0XX/bWMPIzZhAmIMS3QNnCNEcIW4Lk80KwDl/96BH++tCaikKWDaG/kZueBNUCFiLl2OnDQ0QP41LcWYMFWAVq0S4Em6jl1kTLDKqHY09VUjJlDjmmq25oXc+eA7yPvfm5aMorLThtFrUqPkU6klmWbzM9uTECMaSJBJLPr2RQjkvW18yUfSZjghgtruPSXY2jLYlLUBfUb1iEf4oFw5r60fY8S7PquHL7wfy3ADrt5aNQ5wz01YJIT4d/V0mIj3S/r+Jk6uO+5Qe77nISqQhZW+M4LLeZwzw01mbn+1nK271fv05jd2BXWB0ztRdwfaALbQ5BWVHHdiCSM4efcY8VE5omc/4NhvPUql7V1EhNO3MIEOpVXXMVR0iDYanGAv/9vm2PPA4totOmdsB9XusKex7Xc518ORDwxXzsbBIG2iWEhQuj2T9jm7+x2IvtcWrJ7XO9F8018b6/no+i2EwspqOA2shJungPuQ7BCa9ljMc77/giee7itnRhYVGFCMmvxkvUV5hvTg9hCKSfC0t9UZbGmwQXsejrxhbMXmUrGks909UKGlsSYuMe4bG+z5mGrnQJ84h+HsN0uOang8deyKIrUbql+yD9y0iapsXO/rz23ijuuaSIn1lCNEns36cmdTXsb95n6/KzXj5d94WyH8EvJ7ktJvzy/VUBPL0Grzbb7HsIWzy2W1QYoDkCS2quu0eKJp9asJ9J3jD8UEYYa8wXf3dZwofTGlB8VozSBIe/vop9TXub+0abS6TGSfa9l3vIqJzBR00PeicnJX61gn0NLaTFFtv2M7Lsb/YwJyAzTmUjIcRoHaj5DOmO4/vwxDC4K0nWn5zgJY+ScXR6gNeZhaIsYx3xmCPsdUUyNiZodWkrtWpxZzdUdZn25CtTtV9dw/YV1rnKl8w8SPiP/yPMiYvJqToCbsKE+ggIn4TexnxRg+VeqzpAws8RvFbm9Ecj5E7lzpt2ACMLm2wfYYus8Nt/Wx6Jt4AYlOQxuBgwM5vU9HveZzseJ3WhldDhJfyK88XIkxQ7Ll4Workic6PjIFfUcjRmaSvNQ2dr2tPhyk9sTxV67x8fjzS/kxwxFAi1puOnhQ58YwOEnleW7yiZW0QwTkH7HBGTG4boZaszCMEIuFzjvo4ElPx/Boq289Ydy5gAMb9HU0BDmnDFpt51BdAb/GGdMDjvRDZdlH6nRz96hxmQtBkXW56ZhivH0AzEu/vlK1EcS5EsUERotFY3Ek8YrabJd3jhhQ/0ARULFQ9PQlAk+ypkugTzO/RbxO0ca+hvczMNeBxSx+7tz2HJbJxgLPQwsmFhEoNK5rv1IUzC6MsaKNyK89mKEx+9t4flHQucpck5P2rZd9mFq6KVnIm9Q2Hln7bOZ5LNr3wL1UpyShe47RC0PBx1dxrGfL6NQ4qAqW1Rs9cGC0X+YgMw4uru51+ltBM6C3vGHOi47rYpFW9AgzP3DIUvkxhw90xNgV2INl3AkfaAzJsd/oQLf7RfOF1mlge+abZM+RbtLb8UZptdfinDBT0bw+rIWCgXn1dEYuz8gs0O43z1J907cTB/BMJuKHj8pja6X0LB6aId0sLhWuY+ddsvhvccUsd2ueVQWdNvIqAAH7lzS96jBn7AT05t69UfStiyXz1by0tc0mxHGRoBn/trEPTc08ObLMdotvo4hM/XwpJUJ2FgxXd9lrfuVf4zqF4nY8z6PO2+zmGLXdwX4+Dc2c96oTkZcWyjT6C9MQGaYrpvOaiImLj08clcTl/xsGEF6sa/1GpwzMCpOY0LXIF24KO1/Va/HeOdBZZz01UEZWccRk+bZDlmzRZH8iOw0X4wr92P1rQhXnzmGh+9ooVih1xGIYeJcBeZi+nl8K+EqMe4qIFzMy/MCqTYbWOThbXsV8IGTKthul1XVledTFl3SBLVuLQv/afh0/D5McxMUgvSN3JdSxcZ9NG4n8XWP3t3AnVc3sfxvLScuvvMY9DPK3kzSvNPakksJ5ZCVWZpkzzr20jHhtqO6jy13AD71rUFss3NBBhMUv1VDWka/YQIyo6iRZHxb2m3wInGjxifua+CSn1a7BmCOHxH9/hp2ojeibgaNWYKcM5T10Rjb75LHSV8fxGI3ypZ1t2XQujZrImYPNKLqiWicnaGXP54/hruuHUuTyGx3Ao3DryNev+nhSF4VgJ+z2eYiTjH2fs8ADv1IEW/fW2ZPQj2NroisHvLTPTM+rLSqiFDAM7Hi7tXsSmc/jttOd9cnuP/WBv5yTRPLnmyLiNAbERGS83ZtJy/n5uixD+Q1GqCT4+E+Q+De3GzEKC/I46NfHMQ+7ytoM2d+vLUddmOTYwIyw8julms2kRg257u9+HQbF/1oBNUVEYKcXoxzGSZUvVhLPDmCjSWz60llFuMivrOPXNZ2wZZ5fPxrFey+fzEN5qwFsXOZsdOdx/kI2v09wZ3XNHD12XVnuEJtFy/muX8FRESVyXK3gxhG2npxgCNOGsC7Di3KvlHDSiHQkBw9uUwmNL+W7gOeamJ8V7fAIiRyFhJtld8RF3oTXiY73ZMx64DM1/Bcvf/mOm67qobmmIdcgc+lgrQGZPvgNtjHhgfG3fdDsFtzplP0eMIWxCs59jMDOOS4sj5h9C0mIJsEdfelNNKNvN5cHuKCH1Tx6gtuBF6MNbLD65gXqxjauX+IMvNP4yLpYs71aDtb4ka4R3+igkM+QmPC/aZWMdslOoCeaGR0a7KPOS/EGavH7mrjyt9VURtxIl1M4+wyFtYxuhjkmJueuX3N0XfABoT8rDJ8l2y/TJiMQ+339c5DCvjI5wexYAvmJ2KphmJoZ1U6e289j62N7LVrek+2P7qPa+hVb7/4dAtLf1vH8mebzsvjyyhEWrgr4wKGDT0tMe7C21rQoFtN8zS87zEXpiL47iPLOPErg/J6FbdOXC6F72BiXn2abv5l4ncwpgsTkE2I2sIErQZw7vdW4OkH2yhV8m4YlrVI52Bs4kUzt+E+YT0Pq7NoYkJnTFrOkB7mRqPHuFFpLp/G+lMDpg0T1+qbyAZZGc28yPNPtGXt9jdeaqNYTofySXYcdC9TkGasxNf9sUg+ujOBbqDAyY8JJ1WmieoPnDqA9x1f1pJklr3yJX0Rz9EBEIWCXkO9GuMPZ4/i/psaUvnGyaJJWwWCKuLFk1tMLCN1gtBoJtjj3QWc+k8LpUggDhM57qvug/Hb7Yd9M78wAdmkxG605cbBQYLznQfy0K1NVBZq4nj86ExGpvME6YTh8FilleYpaHzqTmTfeVAeJ3x5CAs214Q4jVdWEr1maOUgu5At4Ckib7zcxlVn1PD0A23kB9zoNeZ66+5536mSzGSfuf3NIyxhoTSUw8/XakcYGMrh1H8YxK77MXRHj5TKwXYt/GzrEMsZRkxHmm/it7n50hZuuqxKoyIiwkS4eBXSFW0D96mnQtKo+9j+7T5O/OoQFu8WyERbKTahxyj7Lw27ITvU6QE3ZoT+ORvnFZlmZ/kOzxnFnI4wwTQASx1T4yfj8XlEzBAI4+MMZHFvJJLPKJd8PHpnCxf8sIpXl6XtTyTUMXEDXbj7JBSY0OhIegVbbp/DZ/5tAQ46poRGjW8OnXjQE2G1kwr3TBLIV3R+ph9Is8ltdsrjc//nAhEPngMsk5V29X0oHlK26zORr/c/8PGiE74hFEp5hE1IVwBfJj5uoHgQiro7eMVyjOXPhrjwhyN48r6WhDaz/A2RxL8cMjnafGTcRozpxjyQGWV8LFdDL1k8+Y6ra/jjeTWpjVe7mSZFOdKaR0eIZ6NkLTrehVZrEZbzho0Ei7bO47gvDWDP/WlkdaS6VsSmpMYl0RE/DTLv3rSkjluvqMlkvCBPgdHXsSpoRvDS7+r+bNN5WLvtn5fy5c224kg7ll5WXZu46mh7U9Jt2y73dJ/KLRX05x5v47LTxrDiFVZpuXOcC09lruUGoKUBLDTxnCDFblsePviJQRxyXAn6d1VAdCdlbPjfMXrHBGTGSS+4tGqIE+hoLB+/r4lLf1l3BrItcXAOl1n/z1GYVCfNE7SsMwsiMTkapnMUGLagsCSI2UvJ2ZAPfa6Mgz6olTprFJLU+Opz3CJfoIZYRvduP993UwPXnDmKVtsZ7ELADC7N4IQNTQ9SjOQGEK1mgvd9tIKjPllGUWZjs1utJqPlq8vnV3HrDy9EUuTdwrdxSIjJCf2K12Jc8dtRPHFPG+UFkH5oG2pp5Ihx+7zBQxP68gcOPWEAx3yqAo+in86lWuPxN6YdE5BNhprIbE7I2HCC3/yPlVixPIZfoAljTN4TIzNjSd0+gK1HaAgYTJJBK/MSfIIzmCWtThFhhRJDHAmOONEZ3lMGZPncTIy7ZDuOxivtDNu5r0aHr3/m4Rb+4IwdZ7Bz8Ss9NGkSGKvZyCmBf7fNEJy7fdSpAzji5K4Q8kH9mzrPg+eHPjwdn6QHMmGWX+pJy8PiISGtFGN/rgRXnjGG+2+oozignz0rBV6D9qyBtPSXXrh0bdBj3mp42OeQIk780hAGZLKpeqeKbn8yWzc2HhOQPkANX4Jf/T/DeOGZEKWiOCApNBs9xJDnOqmdYDfZ/Y90I9LPlrUZpbTBSC0wjZXYEfU+Vh2l6gYYtmLbjNdfiaQr8nMPNTFQCXTd9Wwb/EPcVA+XCt8u72IinLmWmEUTMdpNoDjk4aNfWoB9DyukL9a/M1uNn5pt5uzoPem+Tpx1v/7iJm65tOZEnuXZ3LednastS2Riy+RhefDYGLDLO/P46FcqkjdaVUQyZud+nE2YgPQB2ch56a/HcN9NdV0KlE+kMQLtN2SsCdqfWt0Zk3cwfzAka4RwtTsJ+WQ6IsZMjRpjRmwLoqwqLLUR4KozR9wxCDGwgBVannhEHGAzL6KzGzaUrvyLeLmfRg3YYcccTvhaBTvvldeQldSnJumH7YcwVW90RVrDhPzN/X3P9Q1cd94Y6mOhhOkSFkuIMG94jo+bTdw10qol2HKbAk5wIrL7ftyP2eAhFQ69fMbfMKYYE5A+ILvo2LDuD2dU0wuLRkRDWX0TuuhT2Ba+UYuwzY4+jv/SEN6+T0HFItGQCndfVrzAnArLStWgZCNhT0bFXH613Uxw48VjuP3qulb80K5zMqf8JTWIGwJDbnRDGHbj362NtfGOA4vO6A1h0dYcjac9n+TVHL1n4jb7yEJYuo8o2Gq4pZFl4OPZR5pYevooVrwcoVD2Od2JzzKbsuqG1oMeWnoz7ni1YpQHc/jQZ0s48ANZGDD7HBl8TGfbG1OLCUg/kA6QXn0hwq/+3xXShVaHZZxGSCNnh2hdiJPgjD9LR/PlCCd+ZSH2PYzTotXQkPH9n1afO6KvYSRFbYyHv/yx6YSkjtpoG7mSM0Aht9HjceC8BScU7aaPdx9RwnFfLKM8xHkS7KCbvagrZt1R/GxkYrhQ1Fu9A/dlly9r48IfjeGtV0LkCxqqZb5rw+A7uF3OBfIlL8Iu1kd+vIIPnFISbz7Lw3DTkvCftfuzvzFJ7gfk5I6x1fYeFiwKnIDoiNRyH5ODe4nVP74zSFxYacnPqrhlKddc1+VtVxkidZLpE42WJ6JNwWFe5KBjivjYPw1gaEtPQiXIU6gmvmf9UJDYVj10XswHTi3ilP+tIuJBsWIupIt6nDpS3vC/0y9k+3oVg02BD1iynmDbnfI45R8GZb0SzYVs+DkuC27JxEr6bOptcCXFP50/hst/XcPoSg4o6FX68kFMPKYPE5A+gsuSvm0vX+cjeBvq2M9fPFZU0ZQkGioJcjGuOWcMS387ivqYGhPmRcRYTag9lYWmxHBriEsmx3l6f4935/HZf1uIxXvl0VjJTsEbdrlIpVUrQXnQx0lfGcDRnxzseETilUglGO/rSJn/rCZ4swnZh7yhHki34kqHQzK3xx2Cxbvn8P6PFdBuB5IQ31B4CDlBMeaxojfJv8PJpoPAvdfXcO73R/DKskgmj3b35Wzdqf3Nhl0RxrQh5Zru967vyiNqyxUCiSPP4tHoTMHMBveeljtzdOqMyYCPh/7cxEU/HsbK1zmvQg22khptIcs/8F8Nv4i5o01yRmm7t+XxmX8dwjsPLaLR0G1nDQM7FVr8t2Op0r/h/l6j4TzKLfL45D8vxIFHldPWHvLq9G9ko2NuM327hFs6d2YX8rnTvTnuu8kvCgof8NXLO+DIEnZ2g6WwtWo4UcQ82ydrQbfH5DtfrSFe8drcG1lB98IzLZz/g2G8+GRbts39bkwPJiB9xvZvL6JYYZUKT/oNd+/nK+PNjWhuws7GwFMPhjjzP0ew/Pmw41mokPDUzwy62r5MYDKvQGPpCYYWBfjkt4bw3mPKCNnoUpo5Jgg9DnzT0BMn/nHBJJ+eR4LGWIzFewT4wr8vwNvfmRcjJvkOMZZ8T3ZsV/nk427PVtbyHaQrMsTIcz8XSgEO/XBFRFY6A4gQZ/tm3YgcsHpr1UfkN48Xq7zefKWNK84cw8gKLVLoDh6MqWT9R8uYIdSgVBb52HXfnCSEZZ0HO/F7gwNS50EUygneermNM/5jGA/f2eyMdrMKofEGT5/LchDppUERcXeZ8D3+y4M45tMLkMtFaNXdY3mKhXoM7Dri50MkTmAatQD7vq+ML//fC7DVDoHOURAjxg3qiHn+XXr02jQnlRn8HZ3AUmSbTQ0fcv+oJ8GXZKKwYXDzSZigXMlh2ZMR7ruhBqlktMtoWphvZ3HfwguIlSrFEmPvRbRqQE6CuHbm9wbDWjQmXHqVjQoTXPLzKv58WUPXqBBPJB35dgyWGvauJ6IXiMwEZysOd/t9JxZxyj8vwJZOGOrDMerVNlqtRLY/usIdvwEmy0v41P8+hHwxkL+ha2fQSLrtSv+S+elZZut58BfFhOuf77xnAa2mJ/2uaOXlmHA3dbyKDUO6F3PpsCjCwECCv1xXR3Vlb9sy1o+V8fYN2RrpwN8eb+Psb4/o0FfHVBNfbEyKbP85UeA8jFjXFjngyBxO+vIQ/Fw6V4Hxer6aMfXUC0kflvd3e1LRrHGyWoCVr8d45K4GXn4uwsjKELmCj20X57DHATm8/R1ZCTGT9lmOhULlpw4PxSvzeOYHum9VlCnI7GvF1iS3XTmKpb8Zw6ItmPtjbJAvRrrzN/y8Z/sbztthA0cWPTBExu7Lex/MMjqk+9+YKkxA+ojMaLUaMS74cRWP39NCZZDCYmd9T7AtPI0Wu8Hyhkdp8BG6/bvb/gFO/eZCVFg2nRo3eQtHyPQ7xNiol6K5k245aOxGt5zTQFjwUK9p51xWW4n4cOKhzEFIjWBHKNTz6G5rfh3XbDIfz3N6dBwsPXR7iCW/HHX7K5RjJEvepp0CvJ4ERFXCl2OfSO7pqI+X8YFTKvK4MbVYCKtP0NEqR2ZsW81y3nw6Ypu9M5M3NYmsUeskQ0akbHUBBM56FcoenrivjbP+awQvPtUSgZAyXxp2eglyLDibkyaHRicz+GrQKB6c08Af9ncaXOhLCSmNYiw9r1SIJJufejSKhsfU85hfxkydCjU3cl7LrHsP+QInGLbltu5tCnpvTWOILL6V3fZ4jHyZVzXf9vdMYQLSJ3QvLh397rZfHltsE6DdZgJQR23ZRda52OZRCKQXZC+lnoSftGXOgRj2mEnWAK88G+L8H4zh8XtbUnHF0arsZ7Fwejy01idWURlnhNhCXNuIqyhIGbavcx306PD92evHG7X5esy4Y7Mf7hkOjCi4PDw857lfNITF5Qt67UDNXlgqQOxmzQKHWBtjGtOCCUifQbeeF9V2O+ew9c66PraULHrdOHyGRR97h/mQnPNERkdCXPbzYdxyRRNBLtvHfAEDKOrBSDpeDP/q+5sPZz/G2sk6GWenrJ67HuqjMeo1JtZp5TUnNT6kuKFIuFLMWtCpP+Ey0cb0YALSR2jMNzVa7uzf++ASSmUfcajehuZI0kqVjidi9ILE4yO2wEjQagN/Oq+Ga88ZRRh325/IWt4S1so8EdvfPSP7NDuP3T5OF2556/XQedlsZJme39zTfE2PChLLhNzQGTYKiRZD7LavFjWsQf+NjcQEpJ+Q+K2GQWi19nECMrgFezNF6ZIJKjBZpZCxkXjMffiMeyBfTHDL0hou/smILO4llUIs9+28mPvbLFDvZIKg+5DneNN5Hq8tS1BmuXNE78F5H84F1z3d277mpZNQ+ANf1pjf88ASNtsmNXO9aZKxDkxA+oYkPRo8y32J09Oo7Xf4oFT1cDEiibfz4khHZxbB6h2WezLJzl3J9VY4Ki5Vcnjk9jbO+W4Vr0ovJc7NUbGWfktmgTaC7qBHzlv3s3xZiCcfqKNY9mTpZimSpgPOV0sJew+4N7MCLgyBwqCHIz5akHJhKVIxphwTkL6Bl016ZcldveAO+EAJ5bJPa+ceolueXQy83+NFZnDvOVHggh/pnAwmcqMIpUEfLz4d4pzvjODJ+xvSfoSLStme3kgkr5HNNvfldH/kriailt7W7rq8rXu6u+jXhpDooMAdr3YjwjGfqWCnPYup925MByYgfUI3Ia6jXHUyAgxt7mGfw/My01laVIvG8LDZiHhjkApbKddNDVoqEVEUI1+KMboCOP8Ho/jrzU3Z7zwgfHl2lPRwqeCbuKSstiPGDYiy21IQArz4TBv33dJAuaTNDvV48HBo+HANG+vAPZ71M5OwlzzI9+Wc56ElwKf+4wK854NlKa3WAhS7VqYDE5A+YfW5AVnSHHjX+0syMpbFdzholv94mdjQqndSYybWp7sfGSQUXcmrIbvs9GFcf0FNqoikwloUvPt6JtfNNCldKU2zGFLerJ60eBk05u4/VhZec3YNrbE4nZyv3ZT1t7w1+2eNyCvdsYmlsy/fFcjKke1mjKGFAT71rUHsf1QZLOHtXlZ2lKYDE5A+Jhs0Ld4lh33fV0SNa1vQ6CFdasquiWlADZlMLHRqnXM/Ny6p49LTqtJhl3M/pBsvJynKa42M7ihfKwV5Vx9iLknnyVAXrvr9KF54vIFiQfMeGwq3TcMllb/uVuBusGXJtrv4+Nz/MYQ9DyjJJE+5QOihWAxr2rBWJn0OLwTODXn+qQjnf2+FG7VB54qkoztfDJkxVWi5rgq1FC8EOspt1xMs3i2Pj//TILbagQaRIUUdf9ET1ImD8xttVUKR4D5UP5lCq61dfLQaCf5wzhjuub6m4kGR6UGCJcDl3svSX/652liCfd5bwvFfHsKCzTURT3exu1hVKibGlGMC0ueoN689hC775SjuvaGGcoXLdeoFYendqUX3Nw0Tg1myELok2BnOarRixZRAOAAAIABJREFUbL5VHqf84yB23iunFUMSgjHj1CVJ7TWFVycGUmeH34xw5e/G8Ng9TRRLgYpL+tqe9p6nS9a2miHefxJXeyxLQ8vOWujcqmw+6+SgYmNMLSYgswD1Qjy89FSI339nBE0278uBw7CJLzU2GjVt9Ck4mvbTireIo+Wcs0At9tICjnOj3f0OK0HabzAAb8ZpHKw20AQ3d8vrL0a46BejeOWpNkoc/FA0Yu7fSMqppdHlBsDjEobumsj7OPrTZRz2kYFUs1SNVCy610bHMzIvccoxAZkNJJxMCKkGuuSnY3jw9pobbfFxjdcbU4fuTRqaSD2LJCetwWWuCL0NN5qN21rCwHU/PvCxwbT/kgyKDfB01b1Io/34Xxq4+uwaVr4aolQO0r5U3Lcs01Vxzvb6ZKA302oCpSEfJ311EHsfXFRPkJtJ84NKGtqlOMlDdnCmAxOQWUDH3XeGjaGAn/+3FQi5FKiMsrILUJ+XGdQUmw24KI3Jw9yTTDB0lrDVAvY/sogT/n5QJsNpXiQ9HuK5zFXPJD3fxDhnQxj1NrgKpH7nBHdfW8OfLqwjbCYy4FlTLjsLL60qIt3zWaWam/SkApHeN/vEHf+VBXjbnjlO3ZGQlZXpbhpMQGYBIiBMmqcjrJsuHsN1FzEX4p4L8+4otuXyVQedF1yAtE7LmEIkpp+GRmQPO8+k2fSwy94FnPIPg1i0lbZ5Z5GDXlU0bHMvbJKdj3qbOQZ6YKxxhs4CbwPXnTeGv/yxKQt5cX+svdYjM/yZGeL+UgERYfH0jM65Gw22Jjm4gJO/WsHQZoGUBfP5VbXDhGQmMQGZFaTFjrxe3NXSGEvw6/++Am+8HLmRnXvQjfriJJCKrKzyxA7r9MClJbhYEZs3cbY0PT6GVLbaIYcTvz4gS7SKJyKWTQ3cXDVqWn2WComcm0B9JMJVZ9Rw/y0tlAayk5HPrU1BJgqIhgNFNkQc3J50rksUenj3B5239/kh5IqeejP0POT9+t5swaq5ur/7EROQ2QDj76wGcheV5ELcbbaBuOBHdRQLXJiHj9PddxcOryxfri1jGtBAjRpElqf6LBcNItRrwODmPo5zBm7fw1jhoBM/u6WkcwuaDQoGrQfDVvQyXnqmjWvOquFvj7ZQrKjn4MeBJsrX6hFzB/Enez7z2DjJ0Jf2MlEY4IN/V8HhJ+SldFosFq+Hcfu2myifozu8TzEBmRVoFkTGWunojMOzJb+o4v4/NzEwACnr5QWrF5WfVg8ZUwt3froQktxmVp2LHyXycNjyEQQJjjqljMNPLsvzMqt9zkWxqBrpuJ+FHO77Pf1AE1f9bgyvvxJLmTln7DOsxTBfIKKwtvNxTUafYUDn2TWAgYU+jv3sAPY7oqydGLJXd6qsupMWV9+OMd2YgMwiMhedVSdMHL75chtnfWcUw6/HyOdSkUmksNSS6NMAvUBeLeLdMZEuJbzMPWnGiQPmkBUMUYwDP1jGMZ+toMj1XOR4Tdza7KZbMADcd2MN13AtlYbbF3lPxzepV6HnZGbg1002V4N5lFY9wZY7+jj5awux0555Ofd5Vut2eABkOAUVpqxJI2/30oTR6JU5dlrPXSQLkl4zNEacMLXF9gUcemxJWlfraFBDXN3RmTGl0JvI8hqJlvaqUFPYYx4UBM7CBfkAd/6Ra4tUMfyGTqSb6BCueoT68XjpZ+p8snEfUaKkzshHYYKbLqnhstPqiJput+SZm+ALuY+YH0lPRQpvug0dr45XE5qgNG+Rikfdiccu+5bw2X/bXMQjFgHqFuhmH0WHvhQMFZ6E83GMGcU8kFmMHDl3wV780yoevLOJYlFHYhQb80Bmmsy8cfgdyETPRi3EdrvmceJXF2CHXWRRCjkqYuzkHTp6ThVJ3q0j6UkM12cAMQ2s/JPqM37KBHGk+Y6xlQmuPnsE99/UwmDFQyivW1UaxiMVhGmlFrcl1Vv87rJhfSN/Neo+9j+qiI98vozKUJDuj4lbM/oFE5DZjFihBNW3Evzqv690vzWUxRYP1iNrpqF4p91f0/tcS6Q+lmBoiwAnfq2CvQ7IyzMSqpFRutyD3uA8kjgNC/WJxRTLwGooilwi3gU/3/IXI1x5eg0vPNpAYcC9gs9H6Xda28BFvANuiwUh2T5gDimSQoOo7Un+6IiTB/C+EyvI5cWhm3Ohv7mGCchsJxWRR+4OseSnw2CLUilllFCCMdOMT+hKs8vAQ7sZIVfycNQnBnHoR8oS/mHlUje5nh2rriey6UUkViPP8BPHIvQQ3M8LT4W45GdVrHithUJBK//E0HfEcO3wtSIgDP0xJMXtO8esVfdQdkJ0zOcrOODIEqVKNtUvnpixdkxAZjt6rUls/vrz67jpshoKFXc/tMM6s3B/pyWmkhORYbYsc+9zCnXkDGUrwkHHVHDMZwZQLCOdCKdGMhOdfkK+CgWRv90/j9zRxqW/GkHcct+poBP9dPyiCpPWCY7bQhcNqup/AZWTOaTAR200wdY7Bjj+i4PYbb98uj3dl322O4w1YAIyq9GYuv7joTEa4cKfjOKph9soF1MDZcwI4m3IHAUaUxpXHUHLol+cDCddYoFaPcLeBxVx8jcWoLIgmzSXCUg61NdH0t+biITfKREviR7GTZeM4daldflYXNdDjHyaGxGvIk2sr61+Q/eKTK/UEnM/QL0R4W175fGxrw1iq8U5tw0utMJKKxVfS370PyYgsx0dsnXaWK94LcZZ/zGMFa+HyMuaCxPfYEwvckCgyXGxwvRHnF1kcp2TDhPUx4Cd9sjj2C9UsPMezItkgsP309Ru2mqirqglqFWBa34/igdubSJgN2L5WhRFNfKZYDBPQrlM663WiKyawu/oFKkV+djv0AKO++IQBhbosrYM98kuSJgryTwao58xAZnVjD903STsc4/FOO87K9Fqx8hzBb30pbIgnLzFDvmmhCP4ViN2hjOP93+8hPceU+rMqZBlX/00NCQVXWmihIMEOYZ8hp6OlrZqroKvmTgTOzvGPOjjHh7/VEb6nDgV/BvyJxM8/1gbV/9+DC8/F6FQ5JtYFRWJhqwJeiMiKqmASt8wFha490k/K/fGdlvDWIefXMEHPz4AP5fmUFbZ6MQPbPQrJiCzmq6R6E4y1HkHD97awJKfV+EXGG7Qot5sdLiuUaIxMzA0FEbO7IcJdt+viA9/poJtdmILFHbvYJIZovjaX4A5AxUM8VTEyqeCI493tpreV5HJzg8NdKqHoIY5C5WlZwK9JPc3ZY0Z97qRtyLc9acG7vyDdtItFNhrjQnwSJoiri25zXY6sg45+DdVQCRhDi47m8ia5UEhh2M+X8bBH+JM/W6oz5idmIDMISTePm40+qfzR3Hr0haCIp+kGYnTHll2wfYDYmjdcWo6Iz24CHjPkRW85+giFm6p7VLYqlzyDR4vVL6W71LjL/d5KzW+XSHJRETNuPwVVQlIOryzDYafdHEntqcnDFc99pc6br+6huXLEpTLfJx9DdIFtfy8e0977WePiExW9sv7fKcTlSCWtiQLt/DxsW8MYtd9CyIc2YtMQGYvJiCzGh3Bkewa1MPJEStHhMDlv6zivltqKJVz8oCO+OyQ9wMcm8tiVcx5xBEaNR+L9/Cx54F5vOuQCrbcoRvX0ePGAQLvqThIUpr6IIKhoaxMOPT1+lr1QCgfXUHQ1+q2m/UY995Ux+N3R3jmoQbyJQ/5PCTVIVkNCoN0vtW/Gqzt9PF4iqlI0ev13Xfj52i2Euy4ex4f+/oQtt6RSwFnbVC4IROP2YwJyCxn/GhTjQZva3dez12ozSZw2a+rePSOhhMRX5cTtUPeB2hy3QfjRpEYaHb2bdXcPWe5t9g2j+13Aw58fxm7vDMPX8JLPLbjDa6GiDQHsurx5+tUIDLPJBOjzGgneHlZiL/e3MLzjzbxqrsdhh5Kg+wynOeHEFGKU5XhmENzG5JRWyMSvEp1gaue85UN513te3AZJ361gspCX8JzQdDN8YwXMmP2YQIyB8gOYTcUoCPOmDPSfV1L4exvj+DJh5oYLHvpsqLGpoeGlGGfRLxDTq6T4X3CfAHzDkDReQNs6bHruwrYdZ+cG8nnUBwAcnltl7J2ssvao3ODsM1tJnjthRDPPx7hifvrWPGaG2A4weL64lxRkV5BOw5lvZNUNihLsi2KhwgUhcijF7M6koODfo8oCtFqB3j/SQM4+pMl91l9J0yxTp6UKq6cikimZ8asxARkzkBV6CZOlfSidxfoyJshzv3eGF58tomK80RC7bqo3ojXMRHj3mtMO9SK1GOQPlFe1pI/lsQz81lRzFE6XwipVmLyfPEuOeehBO4nh8qiBJttTSXREBN/Z11tR0fccV8R4c3lEVYsD7H8hRhjK0PnAeion40LPd7WD6I//ASyIRU23uRnYZFG6td0ZEVflb42fYRVYkkcgB0Rjvn0IA4+rqw+S1rcoa9NhQP6J00/Zi8mIHMUTZny0uzGw1e+EeO8H1Tx0lMtDAy5UWLbXdE+49Q0OM6QTGwZa/QP4wwtvQl6FQwHsSUKK6jWBEf79CrY/JBhI3osnfz2mt8yKeS9Xjpk4edKtLU9BaLdAoYWBTj560PY/d15FZ1U0Iy5hwnInCXzSFRMaHBoRKpORC746TBeeLyNQildJy49A8wDmR2IMabhTo3y2oxz58qmg5H+bDzso8u0P71bN/jgLboT7lRr1mJs97YcPvbNQeywC5f2pYDpe8zPmJuYgMxRJMzcWdeW0sDkKHMieqEvOa2KR+9uoiAt4GkMuJbFKpswjDXD0JpH6SCeVI7Xx0Lsd1gZx3+xgqHNA02Wi3sy3hs25homIHOW8eGodMjaqXrRxPolPxvBo3e24RfZYiJJ32Kng7FuNIQVqBeEEK2mh0OPL+PYzw5KuEzKdCXJoq/XqZAmIHMRE5C5jiRAeIizcJZ6J+ybFTsRue78Mdx21ShyBc4W1ucMY12wtFfa4rQ16X/0pwdw+IkDEF+Dp1tnnlGWcIFFsOYoJiBzlPEXcpZEl9uQoIN4InpRx7j72gb+dH4N7VaCfMFExFg76nx4aNc8DG0e49gvDGHfQ0ugGdFzjP+MNymmHHMZE5D5gFz1qx9m5j6oLqzMeeqBEJf/cgTVlUChoJPcWMbJNApLfbW0k2QGQkVIjcbq2zZmN1pIrCFPtifJJo57vo96LcT2uxRw0lcHsXi3HKIQ2qnXmHeYgMw7ssOtiXNODIsTbS3x0rMtLPlFFa+9mKBY5EQ2zk/gyJKhCPVdshElhUNPHZ0dYMw9YhENzhXytPzX3W/VIux+AMVjARZu6c6diB2g+Vz33DDmDyYg8x6deMYV4jw/wPCbEZb8fERmK+edJxLJczKVrPN6hsb0rMm8EWMu0umBRXEIfbTCBAd9OIfjP7cAuaJObJSeVhIj5TtMQOYbJiDzDj3cWV6kkyuRyWA6k5gLHl1z1ijuu6mBYjldZU9OExoIFm9y0lh3+VZjLkIPlGXfibQ6YW7skOPKOPqTFXk2PYuQTVY18ZifmIDMQ7K1Q9T7SKMPKbooVYBWM8atV9Rx8yV1BEECP6BwhGneY7yxMAGZi9Dx5FrurUaI0oIcPvqlAex7WEnXKpH5ReNnl4/3RE1I5hMmIPOU7LCvvhbD+FJMD/fe2MQfzhxBFAbI57lgVVseX9VoGHMO30OrDmy5OMBHv1LBLnsXnHhoM0SNWlFAzPuY75iAzGuydic8BThfOFu1DtIJVhrnOdvw5H1ORM4YwZuv+SiW0pxJ+h6+SmcaT8QEZlbiabPEViPBTu/I4xP/vFAWguJSuzykqy5gxXkgsuL7uOO/+plgzF1MQIx1kvUzevGpNpb+rorlz8ZORCgwaRkvX8NlTGl4Eh2d8jmVHzu1+hs9QjxcUqbLyaWxj7AVY5/DCjj1mwsQFFitR+HIqu1MIIwuJiDGemEjRraoGHkjxlWnj+DRe5ooDgaI2LIC9DNYo8X2FXwxvRbLi8wG6DdKO/mE8zy42FMsI4b3nTyED358gEt2QLxU8Ur4Brogq27DmN+YgBiTIhORxliMa35fw91/qqE8SOkIpPcRlYT2hz2QGNiw5nmzBOqHcx3bLR/FInDcFwdxwJEl8SJ5BCWZnr0wDVkaRoYJiDEp5CxhKEPCHMAtV9RxwwV1FPJ8jANXzlZPsyGdeSPmifQ9noasFmyWw6n/UsHOexRk5UDxOlbRiuxOljczDBMQY5LIScJThSNTsR8+7r2pgWvPGZP28KzQ4qmkJ5MzPrRBvglI30LPwuOa5cBOewY45RsLsPl2gQ4U0kS6ioU2bVeY98o6ExiGCYgxKZI0pJHW29DTEIHw8Ng9bVz1+xFU3/BQyEXS/kLMjp1VfUvmWTSc8L/r8AEc/6VBVBbG4ll6nTbtKZJB5y8e0LQpu0WxjBQTEGOS0PvILIuGqhi24qJBr70Y4sz/XIH6CNfCZjGPha9mGrmIqQwxjwwbIEZacpuWXOsR81UMohjtEPjAxyo4/MQyigOc36P90NaOuCadX4ZBzBc1JkE6xvC4+oNakERWnHP2qg08cHsbjTGapxBcV13LeI2ZJfUSGTYUOx+AS6VLK7OYnoMvfa2itnvAHbgTv7EQR3+6IuLBw7Vu8SDp8+t7mTGvMA/E2CAYuqKhYnuTxqiHy34zgkfubKOQD5zxitgAHLQyOjKxU2smoVAwvCi+H51Fj3M4uIK5j5w7Xs26h0Xb5nD8FyrY44C8vocRKhMFo0dMQIxJQ2Mk66oHHl5/qY0lp41h2eNtDAyoIaLViqVTr5emXu3UmjGcsideoB4iBYHHSYSBtdU+WvUIO+5WwAlfW4Dt38aQVQQuS7tex8Mw1oEJiDEpeJZwbMsJZ8881MLlvx7Fm8sjDAy6UW7Mzq08jbQdio8IXEPCwh0zh0zmzCZwJuka5DwkTiFqYzHedVgJx31hEAu3ZO6KPa0CXvzmfhgbhQmIsV604kpv339zA9eeW8NYNUa5BIQRg1YqFmq0+MNZh74aKGPGYPt1EW0nJKyC4/zOZtvD4R8p4oOfHkShxNyVO5gB285YTsPYeExAjHWSiQd/33jxKG67siGN9QLpzEvxYNlnBJ+LD3FRqnTpOrFltGDGjMA9TcGOncfBbgBx6B4LYhzzqUEcctwAZBEwOiheukAUj1Gnrb9h9IYJiNEhq7DS/rp0JJwxckPZehW46owq7ruljspATvIc0vOqk+OwU2im4L734kD3PbsCSKgw4f/iTQROHFpNYHAzD8d9voJ3Hsq2JKljYt6GMcWYgBgd0kYk0NGpjlRfezHGFb8ZwbOPN1EuBaIVEV+XNtgTw2UCMmOkOiF5DhZdiSpQIJzLF7iDUWsAO+0e4IQvVbDDbgXtYaZOoWFMOSYgxirIaJWhDWd1/vZYG0tPr+LVFyJUKj7ikBLDah92uordAJirE9rpM7PoJMEkyTlN4Dr2KiD8p+HEY4/98vjYNwexYPMcoohTPlLJMQExpgETEKODhjo0Ln7fzQ1cd+4o6qNAruie46w0sVQ6nGXL9k4i1jyQGUPn2bBcQUOI0jo/CVCrhzj4mEEc+9kBlAZYGQdpfKmepOU5jOnBBMQQMoNDobjl8iZuunRUTBSXQucpEom3obOcxXglOt9DE7LWtmSm4PodkqFyByznB2i3E/g5H0edMoDDTyrzFVJWzUosEw5jujEBMTqrDtbHYlx7dg333VBHoehJRQ8NlTZnT1tkxDrLnK3baaekc4aFR2YQzrJJkAt8NN3xGtrKk/kd+7zXuYkUD6mEy3VyJVkuyzCmAxOQuQoPa1aas6ZJfelTLMX1nXq8+UqIq88cw+P3NlEZ5GSz9GVihTRhvsobE846Z5uMiRs2poZumW02u5yHkx4IfRBWWm2zOI8Tv1rBTnvlUm9QJCQ97HZcjOnHBGROo4e2OwrV6ioxRpw9DnZgBZY9EWHp6cN4bVkk8XNW7hibDhVtnYjJggU9jjxu9P488RR33z+Hk78+hEVbBTLnw89lPodhzBwmIHMahjR0MKq/1cBkR5w5jUfuCHHN2aMYWRGiWPLTZLmxKRG5cG4EJ2dK1RULG5gQj7hueYL93l/E8X8/hCLDjOttw24Y04cJyByGIRCp2JEeSRLfkIln9Dp41O/6wxiuO7cGzib38pGsImj0B+xmFbNU2h23wA/QbIfI5TwcceIAjjx1QF5D8eCYQEup1cM0jJnEBGSOkoWt5OimdoVrXTPfUa8muHHJKO68uolcia0vYomh02yZCdr08Cgw9xElEXJBgFYtQnmBj2M/V8H+Hyit8krGu+QCppCMe8YwZgITkDkLRUHDVnKApUzXw4pXQ1zx2yqeui9EsdINkTBrrmWfdjpsaiggovvueLVqIbZcnMOp31yIxXsE6bKz2TGialBEeCttpGgYM4gJyJymO0Kl0Vn+fIQlp1XxyrMhygOB80giZ5C0ykfD6HYq9AOas0rQbnlYvFcBH/taBVvtwJnliazFIjNBOoODWMXDMDYBJiCzHpp/HsKsoLY7Os0S6OSph5tY8pNRNKsJgiLDWXbYNznuEHCujeQx5Hg4IQjcY2GEsA3sfUgJH/v6kFTGSVsS9mg3N8PoI0xA5iRuXMoJf36MOPJw15/q+OM5NUm6MhHL8lBj0+OOBmQNeU0/Ichxfkfsfvs45NgBHPN3A6Ipms/iO0w8jP7CBGRWwxAVNA4uxiWd58FbzuK0G8B1F47hrmvGnHD4bJkk4mH9D/uEdKEV8SD9wHkdkSz69NEvDWK/I0riQYpf4jFkxWq6iRswjE2LCcicgDP/WPYJsThcUGhsZSyddB+/p4180dPlTpmAFRWxmYKbHk7kFMl3whCg3Qyx2XY5nPDlQey+byEt0c0mgGp4K6usM4x+wQRkliN5Dv7OMiHuzpuvxDj/R8NY/nyMUlHTrHwukNAWvZMJGzE2CbGnPXXDZoytdw7w6W8twpbbc6VH7U22OpmnaRj9gQnIrIfdV/U31/B44r4mrj5rFMOvRgiKunIdD7EsPSsjWMqJsanJlglutIB9Di7i5K8NoTzENjKstOqGJDsjhO47x98xjE2KCcisYE0jTwoDH2MMXdfBvvfGOv7w+wbCRox8MZbOuWyJwUOsHXW5HZmmNmFbxrSSuH3PhZ0YXqSYsy1J7CMMExx+wgCO/vQA/FxWNZcd6+yytGNl9C8mILMAOUTiOehiTl1BUUFgfPzas+u4+4+jsigUK62sTLc/0Ln9qdDzMPpc2TFGkAeO/dwQDvoQk+V6PLP5H1ZxZcwWTEBmA2Jf1JPIkqhZnLw15mHJL1fi0b+0kC9xNrKGtNYYQjdmHF1BkB6iFi+0mh4qC3x84h+GsOu78+Oq5nQgYBizCROQWQBDTyobOvM4Dj0EOeDNlyNcfnoVzz4colwOEHH9CL4qoZBYpVU/ID6ixwIGD806sOPuAU76xhC22SmnnXTlgGn5tY4NTEiM2YMJyCxAHZBYFhPijORc4OG5R1q44rejeO2lNkoDeSBM0lUCY/icM9CJoRubFCcKDFtx9cC9DizihK8NYOHmARK2zffXPLdDfRbD6H9MQGYJbM1OAaE03HNDHdedN4rGqId8SROynOfB5WVpkUInJLK+kNEX1GoJjjh5AEedWkGprKs9Zi31Ne+hv1U6MgExCTH6HxOQWQAT4too18MNF4/i5kvrCHKelHtSPGQiodSF0ugwdMWAiS3usSmhQLCfVeJ7OOYzFRx6XBmaSGeyfLyPkTVETJtedrZgAmL0PyYg/US6ABRtR5b30HkBvjRBvPr3Vdx3SxOlohoXXTBqvOHhv3Y4pwv1FlLBJkmA2Odxcj9OyNnTis/67rFGHVi0tYfjvlDBOw7StiQ8NmueSW5BK2N2YgLSLyR0IP7/9u71x467vuP4dy7nsuvdtUmIkyaOTSDYMaQkEAoEHAKRQNBwDeKimgcI1FaKVKm06X/QP6B91iJa9RFSHxQKtKmaB6iVoIGKIIGgCZAASkxIHBzX3tu5zUzn8/3N7Nm1nWB+tc+u1+9Xst5zds85Pjuz/n3md9cf4Y6uSIu6RMoys9MnJ/a1v1+zHz82tIWFMF9AiyQmqQoyCp7ZSTxFCu0UWGkhRNX8NKPcT179tbom0Uls7azZjbd07AOfnbdDt3V9j3mfWc6pwi5DgOwg7YnwRg1vJ0/s6SeG9k9/u2y/ftZsXq0gVdPgsRE2mB0de03IVF+UboWo96G6dThkSWZryxM7+pY6PD6zt66BaP2qUHMBdiMCZIdom6zUKqWd6OSHj47sX/7hrA1WKut2tEaS2ki0U3YzPa3ZhhazotDu1JWNog6Gog6QzL+mnRxL0x4eid31rnn7/c/MWd5VZ3nlWwgDuxUBsoNsXkTvP/951f7jy6uW1oWTAqVdnVU7CGY+x6MtmDh9M6MlSTwwdMzVIaJqR+Wd5Z08sXs+2rd7PrinaYpUeHjMn/sqwK5BgOwQ6hDXlexoUNojX1qx7zwysJ6WYddcgTK0s6vNPfFFEbO6kJqEJnnO3sxo9VwFdqrgqP/ZJLl5Z/nCvtTef3zR3nCs28wsbycFEiDY3QiQbRWuZJvrWVs+PbYvf2HNnnxsbP25pnNW3/MLWt3WxLPwubLCn9duZItLpz0fUyE4vMXQm7HqGK+DfW21tP0Hc3vgDxftwJE8XAQ0o+iC9p8W5wi7EwEyc2oEaRdGNJ/joQmC2j3wH//6rP3keyPr70mtrDTSR70duTGnY3Z0doo6IHJVMryiESK6HbTg4+Pq26NRaa+6rWsf+eO9ds31eqKqg+e+GrC70cM3c2EToba08RE9dYA8+vDAfvr9kc3Na3KgJpxlXniFq17Mis5Nrq23Kg2X9j2AvYPc59w0NZDBsLI739m3T31e4aFFLv2JwFWHANkWYQBomB8Q1rX6r4dXrZOrHMraS9GVAAAL/ElEQVT9e4nWJdHSJWG3KMySBimoE0P9TKY+j6w+T5kVEw1iSOzeD8/Zhz63ZPOLYeAD43RxtSJAZip0sPqtKoy4KovSfvDNka2cSXzoZ+FNWnWIaNTVxnOwHTRMWgMYsqyy8aiy7lxqH3twwd7zqQXLO+05pBcKVy8CZKZC05W6ndpmj1PPl/b49wbWnw81Eq95aIRP8wztJYhZSnxJkmafR8vz1Juslq5L7fhDi3b73T3Td/VfWJaEgMfVi9JppkINxFtHmrkEJ56c2OmTZX1Fq1DxLlrTbEIVTmXVzHLGzPi6Vr7goT5KW10t7MCtuX36oSU7eKTb7PSY+GM2LgSAqxQBMlNt57kKp9QLoxM/Hm0s8e3Xs5qA1lzYKmQ0YBeXnib7eQ2i0og31Sk0bDp89smC9Y3RoLI7jvXtD/5s0fYfCBtA+arIfv70oXNEAxauXgTItgihMB6X9utfhQmE51NtpKmR4JLTCKvCd24MS6l7T4aGvKWVn55yUtm9D+yxjz246BMF2wEPIeZbnBtc3S5UcuGyCU1YTV2jroEkPpNZJyGsa4VZ8ShIvCdDB193LK8DohhpBeTMPvBH83bfJ+YtzVQ71N4r574CAAJkptRuHpZjb5uyfB6nr21FU9UshRFWhWbS1nc038NsOJjUtY2OffxPFnxRRB9BrSbFNDRrcY6ArQiQmVK7e1sIqT29CqOvytwbqzBDiYZLKzg016ay0VppNx/u2af/YtEOv6nrTVjqjNIqAWFwA4BzESAzFWodbYhoiOi+azs28dlomKVSNQ+tS1nXRNYGhb3x3p4df2jBbnhVFoZTay0T09l6qT4qAPzL2AahGSu0qx883PEZzqqNTJtIuN797b1081L4TtNkqD/rm1luNlk36/Qq++DnFuyjDy7Z3GLuzVY6L/5oPyX6JxIasDgvwFYEyKx5m3uYLCg33ZrZ3FyY8Rz2225pHSw1oWz6El5CCIetHz4Yt1mGUpMDdTvsraIjv75S+gq6n/jTJXvbe+f9dHhTlQd5o30p1RoJD+A8BMis+aquYa0lFVjX3JDbkd/r2spKZVkWCim/3tXw0jJMWMPLa5e6lzAvQx8amKtJgeExaX3M86Sw8UjrV2V27MMLdvzPF+01r++G9ay8fyo8FsDFIUBmLMzs8FUTfRhvr6593HFP3/p7smbXQfNw0ZLiqoHgN/P5gKo9JFrFeNqf5F3f+j/V3uS5b9a1/0Bmn/z8or3v+LzNL053egyHmuMN/DbYD2QbeCtWU+iVZeik/foXl+3bjwxtYUkVlLCMe1VOTDsQTkdu4cLCdVAIEY25VQ2vOcb194bDyrq9xO66r2fvfmDe5hYUKAqa0L/htRZNR2/2ogdwcQiQmQqH2mshuqmJbFXq5dbKqcq+9Fdn7JknJ9bvplbqalrFH2fnIrUhokDWCrq5DQa6XdpNt3btng/17ba7tBCiglm1kvZ57QEOgRJqiAAuBgEyU22A6MDrj3DHb9al3ovPFfZ3f3naVl+sLO+lYX0s7YNOU9ZF0DHSEGkdr46tLY/t2htSe/N79tjd9/ctzzcFR3vsm6hoQycEyHS3SAAvjwDZdk1p1qTKz/9naF/5m2U7czL0j/jirxunSJPf9EntM2XTQby7wqVthgrNfO3PHWbv674vb+8DEcJP7osi6m5zXIpRHQH189/23q7d9e6+XX+o46+gMNaM8qlNCb5xDKd/H4DfjADZQXzBvszs5DOFfeULZ+3E44V1Fy3ky0RN9GpmaYajemPL7jt17W+jal2hZtDUEjYK+jQEi99VoNY3isQmk7QOiMJuvbNn77h/3g4d7fijwx4rer3mLwBwyRAgO4QXkPq/0tpLia0vV/bVL67YE98d+Z4gvb5WhNXVtheLHh+y+0Jk2sGdpmGPFJ8yrn3iFRgKg/oreZL5bPLhemWdfmL7D2Z27P45O/qWju8SqOOpUW5bax0ALiUCZIfw06CWKUWC7zsRAuK//31g3/rXNXvhl4XtWaxDJC19lFamEPGmrN12+sI+Gx6NlQIk1CBCwCaWKVTq762u1LWzXuoz+d90b9/ufGcvJEst9HVQ5QAuNwJkhwgNNKHA9BJUN9SEk2Z28sTEHn14YN//1sBG66XN7dETsubqfLeePvWFhJ/RI6M5JtrkKc0Te+0dPTv61r7dcazjEzDDToHWDMXV7bYznCABLhcCZKdQXjT7bLc1CwVKMUl93Sb52Y9G9u2H1+2JxwqzrKwLzvojCVfsfhJ3xZmcjoTy/TrUmlWlNp5oZJrZ7761a294x5zdfKRT10BCzUThoWarcAB0IDWPJjSDER/A5UOA7BChYSbcClfN+tACWWHLVRWmGp00GZU+V+Q7/za0Xzw+9CtyLcaYd7URUlOETidjX1G86apJw8morn3YyPK8YwtLpb3+7r698b6evWJ/3iz5MrGy0CTLZOucDj8A9ffTMOCAGghw+RAgVwqVjQqSTYXlqecK++43hvbUD8Z25uTYVs7WV+KdxPq9+so7C53IIUyapjF9zZvGtL1ee9pDU5EeEK7aJazBFdaS0tV8sfHoc4VO/Ol2fd5X4R/a42TSPCbUKkJhrh9Cn8I2spq3YYmWdiltMk5sOCiskye295rErj/Utdvf3rGjb+5btz8NAv+ZVEkjG4BtRYDsApOh2ROPjezpnw7t2acmduJnIxusptbpJXXNpLSso0I3D7PatcyHin0vfBUoKo11Ja+7ChfvibFUczH8McW0X+YCtIKwgifM31YtKg2d2F7Ah1+tULsKo6t8qZFm4oa6K8aT0sb1+y/GZq+8MbUbb+nagcO5vfr21G56dZg57qHj7+sl3waAbUCAXMG8g1nt/9l0rOry6dJ++dTYXjgxtmeeHNuJp0o7e0qhoeU9Eg8T9ReUlYbF6kVUCwilstc4NFS2VOkffi02Cn4PiPOFRzXB4N0OHj+mJqZQ8wjP077i/hB1akzSOjBKK5OwGvHNhzO75XUdu+Fgtw6NvBl6q3XCwt+Rtqlx4bcAYJsQIFcyb9MKn1VA60S2S8LLcL20lf+t7OyLZV07WbcXnk7qQBnZmRdKb+Ly/ukyzPqu6ppGpqYkFflp6YW2ym3PhERzMvxb5/HXaGs1XsPRh1YWLkLfjR7kr6VvpNabszowcjt0JLeDr+3Z0rWpLe5L65pS84L1axWT+vFZ83f6S05nvQDYOQiQ3cDbdvya3WsUoQlJQbB1Fl1Rl/Pa6/vs6cpefG5iz5+Y2HIdLs/+Ylh/zuoHlDbRxzgsTjseKpTqmkJdoI/H7XpRW6kJK+uUXqvRTPluN/XO/E438eG2C3vNfueWnu3bb3bwSM+bqbQy7uag83deqNajN556vUVL2Td1F1PwtD8jgJ2DALnC6fSF/otpM08oazXRcFptCIW/PzA8bktpHL6mMBmsV3bq+cImw9ROn5x4TWKwktqpOnAy7RN+zm+LivfFfWZ7lrI6NCrbe13me5u88vrE9l2Xb+r03/wM1Xra6koz1LZ5a740iWouW94vyQHsRATIFcxbsNqOap87Er7o1+4bZe65gdHcbzqlN9taw/j/F9w+IkvvK7zRaVBcQAjCzYGx+X2e+zMB2AkIEGzY+E1oy+5Nvxkv+1uyuWxvb+szBT6wqxEgAIAo57VQAwBwMQgQAEAUAgQAEIUAAQBEIUAAAFEIEABAFAIEABCFAAEARCFAAABRCBAAQBQCBAAQhQABAEQhQAAAUQgQAEAUAgQAEIUAAQBEIUAAAFEIEABAFAIEABCFAAEARCFAAABRCBAAQBQCBAAQhQABAEQhQAAAUQgQAEAUAgQAEIUAAQBEIUAAAFEIEABAFAIEABCFAAEARCFAAABRCBAAQBQCBAAQhQABAEQhQAAAUQgQAEAUAgQAEIUAAQBEIUAAAFEIEABAFAIEABCFAAEARCFAAABRCBAAQBQCBAAQhQABAEQhQAAAUQgQAEAUAgQAEIUAAQBEIUAAAFEIEABAFAIEABCFAAEARCFAAABRCBAAQBQCBAAQhQABAEQhQAAAUQgQAEAUAgQAEIUAAQBEIUAAAFEIEABAFAIEABCFAAEARPk/huCLBo5DrpUAAAAASUVORK5CYII=;" parent="4R6QqSdhvKCpwx4tjvkI-16" vertex="1">
          <mxGeometry x="698" y="1026" width="110" height="110" as="geometry" />
        </mxCell>
        <mxCell id="4R6QqSdhvKCpwx4tjvkI-21" value="OneSignal" style="text;html=1;align=center;verticalAlign=middle;resizable=0;points=[];autosize=1;" parent="4R6QqSdhvKCpwx4tjvkI-16" vertex="1">
          <mxGeometry x="918" y="1136" width="70" height="20" as="geometry" />
        </mxCell>
        <mxCell id="4R6QqSdhvKCpwx4tjvkI-29" value="" style="shape=image;verticalLabelPosition=bottom;labelBackgroundColor=#ffffff;verticalAlign=top;aspect=fixed;imageAspect=0;image=data:image/jpeg,/9j/4AAQSkZJRgABAQAAAQABAAD/4gKgSUNDX1BST0ZJTEUAAQEAAAKQbGNtcwQwAABtbnRyUkdCIFhZWiAH4wABAAIAFwAxAA5hY3NwQVBQTAAAAAAAAAAAAAAAAAAAAAAAAAAAAAAAAAAA9tYAAQAAAADTLWxjbXMAAAAAAAAAAAAAAAAAAAAAAAAAAAAAAAAAAAAAAAAAAAAAAAAAAAAAAAAAAAAAAAtkZXNjAAABCAAAADhjcHJ0AAABQAAAAE53dHB0AAABkAAAABRjaGFkAAABpAAAACxyWFlaAAAB0AAAABRiWFlaAAAB5AAAABRnWFlaAAAB+AAAABRyVFJDAAACDAAAACBnVFJDAAACLAAAACBiVFJDAAACTAAAACBjaHJtAAACbAAAACRtbHVjAAAAAAAAAAEAAAAMZW5VUwAAABwAAAAcAHMAUgBHAEIAIABiAHUAaQBsAHQALQBpAG4AAG1sdWMAAAAAAAAAAQAAAAxlblVTAAAAMgAAABwATgBvACAAYwBvAHAAeQByAGkAZwBoAHQALAAgAHUAcwBlACAAZgByAGUAZQBsAHkAAAAAWFlaIAAAAAAAAPbWAAEAAAAA0y1zZjMyAAAAAAABDEoAAAXj///zKgAAB5sAAP2H///7ov///aMAAAPYAADAlFhZWiAAAAAAAABvlAAAOO4AAAOQWFlaIAAAAAAAACSdAAAPgwAAtr5YWVogAAAAAAAAYqUAALeQAAAY3nBhcmEAAAAAAAMAAAACZmYAAPKnAAANWQAAE9AAAApbcGFyYQAAAAAAAwAAAAJmZgAA8qcAAA1ZAAAT0AAACltwYXJhAAAAAAADAAAAAmZmAADypwAADVkAABPQAAAKW2Nocm0AAAAAAAMAAAAAo9cAAFR7AABMzQAAmZoAACZmAAAPXP/bAEMABQMEBAQDBQQEBAUFBQYHDAgHBwcHDwsLCQwRDxISEQ8RERMWHBcTFBoVEREYIRgaHR0fHx8TFyIkIh4kHB4fHv/bAEMBBQUFBwYHDggIDh4UERQeHh4eHh4eHh4eHh4eHh4eHh4eHh4eHh4eHh4eHh4eHh4eHh4eHh4eHh4eHh4eHh4eHv/CABEIAZABkAMBIgACEQEDEQH/xAAbAAEAAwEBAQEAAAAAAAAAAAAABQYHBAMCAf/EABoBAQACAwEAAAAAAAAAAAAAAAAEBQIDBgH/2gAMAwEAAhADEAAAAfEVfegAAAAAAAAAAAAAAAAAAAAAAAAAAAAAAAAAD9Px1dXuuLTT3CFSnN5nyP3882AAAAAAAAAAAAAAAAADsecf1d7Rvqs6nri31UPJ+rZBDLWAB5xcwx2U6B09rnYt87FVtFrRnZx6LUHoAAAAAAAAAAAD3nL/ALqus2z7S+dDPQAAAAAAAB81S2sN+Oc+xUGJ0VbGm0AAAAAAAAAHqfF8kJ2XzYSaYAAAAAAAAAAACqULaIOPc5g9fKH0gAAAAAAA/T703nsUzmQkVAAAAAA5PPetGPNkm5Or3X+j3wAAAACGzLZq9Ht81fv5D6YAAAAABc4HVJFN9CZzYAAA8vPfXwptS0W95r3NZNc2m+OpyPuGO/u0PdeKe2vxvmyk2DzrfmendGMW3ZCvTx9t9QHvgAAFJpW1ZXD6OJEe6AAAAfv5ZPdVxliy4oPcAABXMdvXnPNcYnRV+9zX7vqA3V4AAAELRNV/NNhkOjQlL0XG0K3ZJfOBlqAARUq8zxX8s1Zru1DHaAAA1igalKoAlUIAA4/Mo3NfS7Q+m6LMS+cDLUAeUNjtnlSYSLagZnOP6jLUArVlY7cX0nio8To9kcXbM5kPcQAI3J9qy+Lewgi9AAABf7ZyddjxQZxwAGbXPLYt7PaVxdu6uDZDEZ5n10mvd0ToIn20iZ9wy9qDONj/AIbPD4Saxd84jvM9gRcpL58PcGb6Rx65lA0vF9Q02MwJVEAAqtq5cN+PP38ru2AAd/BZMtGjiy4kAAfJn35X9HhdNOibzIHJlEz+Q+l772SaIM44ACi3phIx3VaJ8Rr3SxM5oDPfi1ZpC6bZnz9TeZAAAyWOs1Zre1DGQAulLv22vton8kAAipWs4SM92XKtY02gSaNwd9Rwk0TWs71PRaBKogAAAOLI9py6Le6BI0+4b6sM43zjWz5TGu7/AC9XtG6tDOMABSqTf6BA6wNViA0XOtF3VlmE7lQAFPuFO1ToHT8x07CQEipUG/UHTZfGg5/oAG6tpfnVOeB1tzUx5lc/uk+/uOyCfySgX+g6bL50DPtBA3VrMtNzLRbTdyplzyjhtggAVvONHziD1IabQBfqDddtfdhP5IABWLPEYSc/1fGNl02X0JNIp9wjMJNC1DFte0WfWJVHmUPsuXQ+lhRHuHv4e7HZBacIzDRcgjXl3uUVK7a0NkVlWqY3Gu75aYaZ3VoZxgAKpn93pEDrA1WICzVmSyj6yLLigAHx9jGdNqPvC6bQBN5kDMeq6ZVC6bZVMucqgZdqOXarCFEPpnv4e7HZCnWPFxvFFapFv5ETeZAiMvtPJC6XRfQm80AABnlXlIut7UMZAD9/BsXTV7RY8SGegACEzPZ8wi32i9Wd6JurA2RELNPNmNzd8ocTodGzHSs12Q4UQ+ke/h7sdkybWeafyUbNmyKHutzdOe65db0ml6jpswlUIADw96zjuzv8K3twAAJ3TsV1qVz8gJVEAAj5B5ljOgfuew+m2dAT8vmwy1gMu1HLo9vCiH0z38PdjsgtOEAEFjs589aBE6SVkiZzIe4gAMzv2Rxrz8EToQAAFpq31lp2lGyVjxQe4gAKpa2O7F752Z5E6LY2Y3uRSyY2wWXajl0e3hRD6Z7+Hux2QWnCEbRNU6xUL00OPdcdtJfOhlpAAEf5lT6p9fNd2oY7gAAAJrUMVvUmkuIl86AAA5ep57ntY2nij3OfWTjruuZq2YaTm22FCiH0j38Pdjsmb6RT53K0ay3XvwlcnWSKUPfAAAGYWChxOhCNeAAAAAPr5GnzmN6hN5eUG+qAAAAOaLx2zuXWamx7rhEW+e/h6vNmQUpZcR0jLUAAAAhffLtFr5fJC6gAAAAAAB0c55qstjOhTOasgkVB81jHdaYfPo2Nc2+Bjmm1DCSAAABIT1RZx9SmcUkd1VrSq2iTS/Qy0orizuPb+nMQ+lB6AAAAAAAABbJ3Nm2vkI81TgZAAAAAAAAO/gMdIhKk2wA1WIAAAAAAAAAAAAAAAAAAAAAAAAAAAAAAAAAAAAAAAAAAAAAAAAAAAAAAAAAAAAAAAAAAAAAAAAAAAAAAAH//xAAuEAABBAAEBAYCAgMBAAAAAAAEAQIDBQAGIDAQEhMUESEkMzVAFTQiIzJQcID/2gAIAQEAAQUC/wCWMHIfhK81cJVnY/FnYWvNTDxiGYXy/wBOiKqj1ZkuIaNmIqwKPDI42a3xxvxLWBSYmo2LgiqMiwqKi/6AYachwlI3EA8MCb048M6F0jVwSNOM77kEMkzwaZjcMa1jfpPa17TaaN+J4ZYH/ZrquUjA8EQ8f1iIIiI7GqkH+u1Fc6rqWx/btKpsuHNc1304mPlkq69gjfuWlewtssb4pPoxsdI+rAYJH960BYZHIx0cn0KYDto95xI7cfkAsfkAsNJHdhPPeuAEKjXyXeoAfHcmmihaRdxNxNamyYkkkkXHg7Hg7gySSNYbU2PA93E7EE0Uzdu/B3qwRSyWojW7MskcTDrpy4ke+RwwBRGIKNuI6wJmGwxN4uiidiSsCfiejbgmvKHxG98bgrpzcQyxzM2VRFS0EUQncqhe1F2bE+IRpZMxUgIE5eA6wYfbMrBiMHATiYFJmGkrrCItNm0FQoVfJdqgG6xWzbWKDI5XSPrKjCIiJuKiKlnUYRXMfUWSEps5gG6RO1Vj9sHsW5yCRLzPfUVqDp9C3rUIT+TH05/dR7FkP3IezTQdc/YMIYMORK+eWiA5G6pJI40ktgmYW8g8UvYfGO3CfiOSORNV4B1GwSvhlCIYUPsXUHRP2Mtw8o+xeF9cmkD7mfTPNFBGbcyPxI98joh55cNqjlw6qOTEoxEWI3ujcFcyswPPFPHpvA+3npC+3K2MyQ84uwFF0RddsT2wbWq5wI6DDaLAyMOIoiUmQCunKwLWij6Sq0UjB9bOLgUiUaSuNjMi0GwNJGe1WPpye5C1lx9YbXXx9U3YzFPzl5dg6hWgwhg0BM7yJqes6iJ5bFxWciDTPgmCIYUPozFB0ycvT9MzYso+kfqy6zmsNblRrZ5FlmooulX6L0rrlUgXcz7V2F201GV25Wi7i6tfE9Y5WORzNeY2cp2rLDf5a7eTp1zG8z2NRjONhN24fmqgQIMLtHQISKqKi1s/cBcXIjmyN5JKZ/UrdeZ268s/r68xu8AKtvPYaMzSeEFPF1bHcuoulY5Zk8YtFs3ksctu8QdeZk9Lqy2nodeZ1/pok8bPRmZ3qctJ6vjJduZJ+ddj867H512PzrsR3bnScczJ6rLK+r0X3yeV/wDDXmL4/Vlz9DXmdP6qJfCz0Zmb6rLK+q4kfsaB/f45mX1OWU9Zov8A5PK/+OvMXx+rLK+m15kTxBqnctjozNH4xUknTseM1aa6aaN8MnEf3+N5J1LHLDP4aLd3NZZaT0WvMq+k1ZYdsXLOetjdySNVHN42kHcAtVWuDmQgbjd/KcR/f4FzNHHe5XOqoO3B4qqIkz+pLSs5K3Xmd3lqy4/lP1vaj2SsWOSll61fouhe3LojehLxu/lOI/v8L4zrS0wvcl6LiXo18bVe+NqMj15kfzG6qyTpH7GYIOmblyfkI0HjNLHmjfFLT2aeHC7+U4j+/i5s+XEMb5ZK8Vog+jMk/NNQQ9U7YtZOrYaxZOsPruh+4Cie6OQSZpA+i0AYYyeKSGSvtZRkY5Hsu/lOI/v4mikmsKsBgbNBMzYIJZHSy0Y/QC1kSdKBV8V15cm5xNi5F7YqhM6M2ksWEph1SRDgb9e7+U4j+/iGCKHVfmdaWnF7orYzFNyB7FHP0T9iwGaUNIx0clIf12a7v5TiP7+q6P7eONjpH1wrRBti9n6x2wmK+fuRNi6A7hjXOjfVWDS26rv5TiP7+m1sGCMe50j6Wv7duwfP2wqr4rs5eJ6ZGzcVnWwiuY+stmyarv5TiP7+iztmxYcrnvp6zpbWYieefaRVRa0lChdmzrYysTwyQSAWc42Azhyk43fynEf3+BZw4qH2c5OIIpJpKysYNtWBKCiuVXO26gvtCU802SR4iIzaeaLC+LXDWpcOILsd2Gqjm3fynEf38WNkU6bzc4GnmlwMPCMzauDO6J3aA7mTbJEHJQmjxPXmRYG/Xu/lOI/v4/DdQgUQcZNu/O5G7zVVrqk5C4t67+U4j+/u2pzRIXKrnb8Er4Za4xhkO1LPDFiS2CZh94Pg6fuSuMS8ssdsE7EREEu3YmRhxTyvnl+iPNJBLXHRmR6ibISDE95IuJjSptuEwqHEF5KmBrMSfXYnRhxkTSES/Tje+N9ZaMI4uVGoZcwx4KOJI+iKaSNgO5hkw1yOThZ2bBsSyPlk+tXW74sGWw8LSzJynfUELnFcHbjzNsbd0n/mv//EADkRAAECAwYCBgkCBwAAAAAAAAIBAwAEBRAREiAhMRMyIjA0QWFxFBUzUoGRsdHwI8FAUFFgYqHh/9oACAEDAQE/Af5IrzablHpTPvp84R5stiT+DIkFL1h+rtBoGsO1WYPbSDdcPmW/IDphyrdDVVmA3W+GKu0eh6QJISXp103UwZ6IarD8y4+t5r1TEy4wt4LEpVAe6J6L1ardE9U1PoNbddI1NW+g7tCLfqnU1Kf4q8MNvrnQVLaOA77qwoqO+emz/CXhny/TqKrOYE4Q7rlRFXRIl6Q4ermkYZCV31X5wtZbHkGPXf8Ah/v/AJA1lsucYwyE1tovyiYpBhq3rCoqaLlpU5jThFum2Z91GW1Ne6HHFcJSLvyMsm8eAIBpinBiPf8ANomqk6/omiZpaousabpBtMVEMQ7w8ybJ4DyNmrZIQww8jzaGmWsv7NJkEVJbkgBbpzF67w88bx4ztbYcc5Bvj1dM+7DjDjfON1rLxsniCCRupMXpvBCoLhXJRn9VaXLNO8V4jyUeX3eKJ6a9Idv7u6wAJwsI7wzT2ZYeI+sO1kR0aGPXL/8ARIarIro6MPU9iZHGwsONk2WEt7JGaWXdv7u+KxLpo8OSVd4TonkmjwMkXhlm19Fk0BPL72yTISbHGc3iZmTmDxFklpk5c8QxOMhOMcZve2TX0qTVtfL7ZZU8bIl4W1RbpYskoON8U8YrZ9IRslGuK8IxWntRa+Oaivaq38YnGuE+Q2UQ+mQxODgfNPHJSlvlktq/Z/jkpvaRis+3TyspXaUirdpWwabLKnLHq2V936wVNlruWyk9pSKt2lbKN7dfKKn2ovzuyUfs/wAbaol8sWSTLC+C+MVsOmJWSbvCfEorTPSFyynT5zB4CTusPlWyis3krkTrvFfIksoodMiidLE+a+OSlJdLJbNBjZIfDLOp6VJo4nn97ZR0J2X4R7/msTEucueEoovt18vtYfKsS8ub54RiadGRl+EG/wCa2yKejSiuL5/aF1ySgYGBHwyTLXCdIMlHmEW9konZZZd3D3WNOk0WId4anZecHA9vFIS6YLy/ew+VYkpz0bEt2qw66TpYi3sk5ZZh1B7oq8wiIjA5JZriuiGWssXKjqZANQLEMfp1Jjxh1omiwnbRfbr5faw+VbWmidLCMfp01jx+sGamSkWSjMXkrq5ZhlHm1BYMFAlEsjD5sHjCEKXqIXLvEzT3ZfxSyi+3Xy+1h8q2S0g7MeCQpS9OC5N4ffN88R5ABTJBSJdlGW0BM1Wk8ScYfjlElFb0iXrBDo6l8YJCa20X5RR0umC8v3Sw+VYpzjDZKT0TFYItGkugiUlvXLSZPCnGL4dRUZDgrjDl+mYGHT5RilSrrTqkaXaWFtBsOhzCuanSHGXGfL9epVEJLliepqtdNvaxmXceW4Ehii97q/KGpNhrlHM7KMu8ww/RU3aX5w9LuMrcaWSNNV3pubQiIKXJ1blMYM8d0AAglwp1RAJpcSQ3S2APHd/aX//EACwRAAIBAwMDBAMAAQUAAAAAAAECAwARIAQQEiExMiIwQVETFEIjQFBSYGH/2gAIAQIBAT8B/wBk4muDfVcT/o+9LAx70IFFBQO2BUHvRgU00DDtVre8kJbvSoF7e0yBu9PCV7e5HDbqfelhv1HtQxW6nO9ch91fOaLl1HsQR39RyecDtV5Xr9c/Jr9b/wBr9c/Br/KlJOD3ynjt6hkq8jagLC2DMFFzRZpTYUkKrk8KtQLRGxpWDC4wIuLUy8TbHTr84HpRvK1KoUWG5YDvX5U+6DA9t2UMLGheFqBvhqF+cUHFbYah/wCajTiNibU0rObLQ05+a/XWjp/qllZDZqBv1G0ichWnf+cHHJbYILsMU9cl95GMjcRSIFGDoGHWo2MbcTvJ6JL4uLMd4fPBzZTWmHQnaQ8VvWnX5y1C/NRm6321A6A1GbqMJ/PeDzwm8DWn8dp/CoPDb8z/AHX5n+6/M/3tP4VB4bajxqHwGE/lvD54SC6mtOehG0gutq07fG0sQUX2G2obpaoxZRtqD0AqMWUYT+e6GzDGP0SW3cGNuQpWDC4rUeOwpmCi5pAZGud5PXJbFzdjgh5LfCdf6qN+Q2IBFjTRtGbrU/jsKkj50AALDaR+IqBf6wc8RfHTt8YEXrrC1KwYXG+o8dhuSFFzXWZqAthqG+MVbib0DfrgyhhY1ZojSSq22o8dhs8qrXqmNKoUWGBNqZuRvlBJb0nJ9OPirypWo8dhUoY+NJp/+VdsZ5P5HsRS8uhyLAd6ndWHTcMD2yll49B7UU1+h2Zgvem1H1RkY98hIw7Uuo+6Vg3baSbj0HuCZgLUTf2gbUZmIt/1L//EAD4QAAECAgYFCgQGAgIDAAAAAAECAwAREiAhMDFRIiNBYXEEEzJCUmJygaGxEDNAwRQ0gpGSolDRY7Jwc4D/2gAIAQEABj8C/wDFmiw4f0x+Wcj5HrHyPWPyy40mHB+mLf8ADyAmY+XzYzXGueJ3JEo+SD4rY0EJTwFfTQlXERayB4bI1LyhuUJx8vnB3IkRI/4GTLZVv2RPlLk+6mJNNpTfydbSvjE+TOUe6qJPNlO/Z9bQaQVKgK5UaZ7IwiihISMh9HRUARkYKuTGgeycIoOoKT9UHHZttepig0gJH09B1AUILjU3G/UfThKRMnAQHeUikvYnYPqy7yYBK9qdhgpUCCMQfpAhCaSjgIpqkp47cvraSdF0YHOC24mioYj6IIQJqOAiZtdPSP1+To6KoKFiShiPoedcGuV/W/0n2x+qPzLf7x+Zb/eNF9s/qiy+5xsa5P8AaJG//FuizqD73lJ1xKBviTDZXvNgixwNjuiJrcUrifhgYwPwmhak8DHzKY7wiT7ZRvFoik04lY3Xn4tof+wfe+COoLVmAkCQF0VuKCUjaYKOSiQ7Zik4sqOZiaGiE9pVgjXvE7kR8gHxWxotoHAfHSbQeIj5AHhsjUPEblCJraJT2k2iKTaik5iAjlSaQ7Yxim0sKTuupG0GCkdBVqL0JPTVaq6l0nNiYpuqnkNgiaBRR2jhE6POL7SrudHm19pMTUKSO0IptKlmNhiXRd2puijri1PGJG751Q0G/e65pq14/wBYpKJUo+sB3lY4N/7iQEheyNogu8kHFH+omJpUPSOadse/7XXPJGi573aG+tirjc0UfNVhu3xMzUpR/eA88Ju7B2foS6yJO/8AaNqVJP7RQX85OO/fcrb62KeN0ifRRpG5U6vZgM4U64ZqVA5S8nTPQGVebi0pG8x8wr8KYsZc9ItZc9ItcKPEmJtrSsbjXPKWU6Y6QzhLrZkpMJdT5jI3KpdFekLlbxxWZDhc82k6tuziYprGrRjvNam6sJEFPJhQT2jjFJxRUcyY1bK1cBHyZcVCPkz4KEaxlafKKTaik5gwE8oHOJ7Qxim0sKFbnEDVr9DFBR1blh43KXhig+ly212U3ClDpnRTASkTJsEJaGzHeatJVqz0U5xTdVPIZRS6DfaMTCKau0q2rMt0FdpNkUvmN9oRzjSpH3iYsWOknKqplW3DcYKFCRBkYSSdNOiq4ca7SbhlHeuQyMGx6wXjg371VOr2bM4LrhtPpA5RygaPVTnFlweUcmGj1kZQHWzIiEuo8xkaoeGDmPGOaODg9bl5HemK9LsoJuCo4CFuHrGcIO1ekavNpOg3Z5xTWNUjHebvnGxq1+higo6tyw8aq80aQhLgxSZwFDAidwFdpFd9fAXDyt0oCBtMoCRgBKo47tAs4xmTCGtu3jdraO3DjEjYRDbm2UlcahScDZCkHqmUNHISuGF8RXdPf+1wBmsQwO9Oq012lThoHAaV65LBWlDrWRnVeHenChku4bOS/tXJ75uGU94w351Wk5InDhyRUUn8OLDLpR+XH8o/Lj+Uflx/KPy4/lCU/hxaZdKo0c0Q4nNH3qr4CHxvFx+sVz4zcMnvGG+BqtKzRKHBmio54z71W/GPeo0O5Dh/4/vVXwEP8RcfrFd0d/7XCTksQwe9Kq07kZQ3PBWjUWQwZFR2iC24mioYio34x71Fy6ujDzmZAqvHfKFnNy4bGa676OBuHhkJwlY6pnAUMDUcQOlKY4wFDEQh0bRUe8vao34x7/FbquqIKlYm0w2g9LE1JnAQtZ6yiYa323DCOJrlPaRcFJwIlCmzikyhvNOiapIGg5aI5hw6teG41HvL2qN+Me/x5hs6CMd5gTGgi1VVw7VaIhKE4qMhCUDBIlcJR2UV2Vd6VzzmxwT84UwcF2jjVLaseqcjCm3BJQxgcn5Sq3qrPxe8vao34x7/AAVyfk50sFKyhLbYmpWEBsWnFRzNVPJwbEWnjFM9FsTuXld6X7XDbvaTO4NEaaNIQlxHSSZiEOp6wqzGi6MFQW3U0VCKDmsb9RAUMCJw95e1Rvxj3+DrbSSpRcV7xM6TpxVVU6vBIhTi+kozMAqGm5pG4W4eqmcTNwpra2fS5JSNWu1Mcws6C8NxrUXUzyO0QVNa1G7GG/CIe8vao34x7/BRbTIqM1HOt+HbOgjHeYExq0WquQ3tcPpcpB6LmibktnHqnIwW1iSk4xzDp1qRZ3hcPeXtUb8Y96/MtHWq/qICECalYQGx0sVHM3JSMG9G6Q7t28bnnmhrU/2gKSSlSTFBckvDZnXe8vao34x71qCdJ44DKCpRKlGOfdGtOA7Nyt3aBZxiZxuiwo6LmHG6L/JxrOsntRMTSoekBrlJor2K2Gs95e1Rvxj3qlrkxCl7VbBE1EqUfWA/ygafVT2bocnSdFFp43YIsIhLnWwUN91TRoO55xzbqClUUTrG8jsjVr0uycaj3l7VG/GPf46xel2RjBQnVt5DbAbaSVKgOOSW76C6U4ccEjfBUozJxvNL5arFf7id1QdQFD2ikxrU5bYkZgiJUucTkuNahbZ/cQFDAw95e1Rvxj3+DjSV82lKiNGNpJgKf1SMtsUGkBP3u9E6tFif9334V02joH7XmtbB37Ynyd3yXBpMKO9NsN+EQ95e1Rvxj3+DjjztilEyTGqbAOe28/CtHSPTOQvwpJkRElWOp6Qz3373l7VG/GPe+stdV0R94KlGZOJ+gDjZkoRSFix0k5XesdQniY+bS8IjRacMLeCaNLZUQo7FAx8wp8SY1bqFcDd0lWrPRTnBdcM1H6IONKkoRZouDpJryLlJWSbY1LSU71WxpvrlkLLvVvrAyxjXNJXvTZEg5QVkuyvbpLPRTBddM1H6QLQopUMDAbdkh30V8ZqIA3xRYHOqz2RrHDR7IsH0OrcMuybRFF9PNKz2RNJBGY+Jbakt30TBW4oqUdv04b5TNaO1tEao88o5YRrV2dkYfSzaXZ2dka08ysZ4QW+TTSntbT/81//EACwQAQABAQUIAgMAAwEAAAAAAAERACExQVFhIDBxgZGh0fCx4RBAwVBw8YD/2gAIAQEAAT8h/wBVlrBa6V2SnVwcwCkYuZpDFyNXhyQa+QLQVAh1/wAOTclwEtQ6ycSO19GhX0Tq1cDc00JgbTNsGBNJqQl3FfxU8q6B1qRQDip7X0/cF4kP+B1FLA4tChj4J1rj9oWvPfxfmi051LMXFOtaYheXP90OxYGFdlVnFxoQA3BB+moW7wka74/fFOTPPHhn+1poFnR80cxxzeP66DXPDhlWtE/3z/XXA6ALWoFry94ub+3iiG58LTJ2gFp+oo5MBViFLcOg/dXxG8JplC4T9JLLYDGrJZ+Doafvykgv0OlPvbCYfoArAStDE0OjLfKBKwUbPIlIUxKZ88iUgShHE30ZAFmjKgoCJYjv5pYF9jvGs4FU8j9TGp2QYRd6li9dojCKGu6dJX9OmMYqePzcqNkZU3eoxP7mNcXoLt5FPAHrnvmJJyRlzoQQIAwN1ft8SuAnNvIp2z4s1HKFAa3RCO7V3rzT8qbnhqfl2XdFq+15p+FLt4ou5RSAUAkvuWGuFANjiY0BZsVumZgIRxogm+NMuW8BWAlaM5jeuXLdSpbli93IrghjsFJal+NnUe4OBPQw3c3bOh1MaWcm3fPKpk3idwrCeLVv1M90Dgvf1jQUBEsR3d6S144fO6foE5anXSliDtW1VSGqejtRIQXAXb1EAl40CQLf6u1FlZsSxVBXCOBwa6bqHiW7pj6+d3IhCOc9jcyiE7OTNScnEimhhLbgfb9EOh3mH2rxiKKCdAeTuUUlzkLqbGEh3MAE9ju77m6SHEYFSkBLppVzISmHPjt6jqip6DihoSlmc+VJEMznypqOJBWu6Jts7MOyw58akYCRqzLmzqBubKo7tf33MSuxH3ucbzDuP8q9c89gbTozzx4UtzWH4pRrequ+81ig56Q/tDz7DWrpvNcUEL8k10VwPmgTjlhx2rmz3HOKirUGhgdzAS5vF9xubDoQHjjuJnx1RxpviwM1q8/EvqOzpki2/Sn85yBoVGg0+/gY0cQXVeCgAg/KTY0UgXVfdTPKl3EwoCvGMBk1xBxt+mzgibXQan1MGSVaDdUMem4FwvA44UiMN+3ZLIleBbuZoYzi9KhzJ2cV392UbsuYlgVNa6QyKHMu/c6UAAAC4NtBISRobCVpdxppXZ1tMnSsUKzqBsxvsuh9UypduS0/u5swglwG3b9BDZ/dw4MBLV42/VUqFv1ru0bKpbOGuJ/lBbZZHSKLCN0QxHuOlSjbHgYHZseT2r6mnXsZ5VcLobiBS6XiWbd0MCeu4ghhY+dlIUlIc6ujkOWxpseNYUEMlHVoyXCXmr93exC3lgaR2gh0amlnpCx2LtklT3yV8mlSmZPJjcPGB43bPHD4bhjm7PRf5XBX0W/zZgBvGaB5aIlKy5fcb0hYA87+81My2Z5/82YWue4TUxszwZWG4Vwf9W3BnviNxDmk6H3XAIu2zNmzqfqjcbY8362Jzk8tDwr2viva+K9r4r2vioVkctTGWwBiUnk/dKYKXoPOyY1X7UnJHxu/9yOX8txwmHauMB7bLGB7B+6A96Ox73Ns+tybBOSXzSOBIdnjZU6B9qFv6w7/AObIfy3DiGO6JU8XfMRssENu+f8AyhzxfO7vGw1+kOBPGlvcmbHrcmwc9ITpv7tKJmweVv8AdmKrjtBUMO1LeRuHPSg7bTgeY3EMXweTNPf4TyacGQk2IDT0FbSgwkjrWvvGTibHs6dj1uT83JUgZuBSPSqmtMIhHPbdhm0BK0l6uotRdvL1s7jj1+M/u3ILfByh3F8OlzoDbS+VSpZ7d9RspftabiUSwFtPvbsezp2PW5PyZTHtnrZSLuvWyNmM2C5r60LUgLjV2gBy3ELN1Jkr/wA27QYILg2bmyx8Ysf5U47Hkvr42bO69STpbAp0IFmM0fz7OnY9bk/ADJT7DWkasgVFfspLno567t81CFevG43NoEhDwsbYoyXl1GJgc24W0n2J0pEIAlXIdxk4mzYkHxtHSlY3gaCGncL0mphoQnWvZ07Hrcn4gcgBxVZnHwtDTZxvhx0phpRQsQdBwOm4K7zURElWXcTK4Hit87lb8HSzKuJPafW3auj1xZwGoUWWCzxPFBBSH+Vezp2PW5Pw4SnjEu1epe2etlL8qPI57mLW48lr/NzJCOpYd9zDuX6R9bIFReJR9J3Hs6dj1uTbJAx2p1ONJ9ZAzagEVuWTMkoccfdNykRGEuaPFpByF+5wYVpky41NQAJeNHXAt+U2/Z07Hrcm0ghB5DS1hlW9awltpg87kV8hzV1IiSmV3WfIafvurot8O7j80WROxLFUcVc3PFydr2dOx63JslXA73ytLmDKtqq4x69zr8br5bF+p87tm1EiYNDiIcFugjH0XH5poIYOPDOoWz8a3gaGAGOz+2x7OnY9bk/LSFwW6q/R41vE0qFYFcbJ+HzuosusYKfAqU4u8UFdty5KQAZG53SbBBx4Gpx3ovmhEMGbEqJRLU730BGcj+VtODISV7OnY9bk/EHlEsrDF9BEBbitSaeo+KjKMXHid0oEt1SR3oz3yBstbYm8RB/C6OdJb6bMomBRke1WDfYr2dOx63J+CyqVO2Fm9rVmHaue8kLK2HQ579YCpEvGpvg/Ab/2dOx63JvolEHA1U+B0pev6Em+yNWcecnjdjLG5JVlCeq0DvcFEqCFpmIA/mwMwhiNGrPW6hQBa+Tu+6QS8VPbtvj9JFneaNYcC1e5ptywy13ipsNzJdKnhixIdCm1ltc9yWM451HADEw6NRYRmSqCkGs8UMkm1JLKsW11ciu2ZgZGn6jthkKLwZP4a6flaVXqgKluhB80mn6KIge6FlQmiNr8UHa7kkfydgj5PFXgQV+uRggfOzobAKQdji1NEy2B5fqyxGJWrlUQIEorXBo/Bt+JlTba/wDmr//aAAwDAQACAAMAAAAQ9999999999999999999999999999999999957zy1999999999999999996kde888e9W+9999999999999z+888888888Oe9999999999438888888888888N899999995H8888883x/888888u1999999k88886gVFsFR5+8888X99999vd888+Fn88888ek+888889999u888+4d88+6y88/h2888v99992888iV84n7+GD08ob888/19978889W88YF888fQ88u1888399r888tU8oX88888KV8Zc888/99u888+38498HOd88988f888+99+8884d8tT8J9/80e8g1888/wDfa/PPPRvPCv6/f/pvPC/fPPFvfbdvPPOP/LPYPfyvPOrfPPKffffdvPPPSf8Azyv3/wA86198880999959888so+8r9/82Z98885899999Z8888/bWo9/Sc/8888F999999tx888889h96x88888k99999999/W88/N99999Mu18mf9999999999O/wDffffffffb7/fffffffffffffffffffffffffffffffffffffffffffffffffffffffffffffffffffffffffffffffff/xAArEQEAAAMGBgMBAQADAAAAAAABABEhIDFBUXGhEGGRscHRMIHw4fFAUGD/2gAIAQMBAT8Q/wCkpJGqR/iPcUhmif8ADTPIMWJuC+h1/kUVh5HlnF6+pWwvN9CkUUDzPJKJMK+p1v2gc4jifM++DNXwdSKlXLA0PioVcsHUiVeDdMtHq/GAVZBDq8sTi6ZG78zg08Lia5m5AASY/CqPTe/l3e3Tiukf5TFOKa21JarnN67X5/A8/wAzkZffbWyiBNYNHlyvfR+pDSyhnV0uNoOkqfR2nE8QaSh9PeUFDImVXp3g5eXK59O2kIoSSzX/ALgy+u2lq5nH+H2w3U1TsAAmu3N5RPtN44vIYH5YSU5Z5ce1p4Ty3w4duUTLyOOJyTE/DDoJJvzOVhapIzi63To4n02Z67m+PO1g+c1oReLe7kcj+w6Sa7cjjeZoGKE59vcXmah4mmkm/Ji7GdnLR/VIejJKNiWpfU8+OlnLhaaFDawK3IoeXx1hmNymjP74GDmsIldLzuNDF/Si9oGLQ6HsitPYfcXLBxK7PuJDw8rnkmD+lCA5DgCd6mjP6jmlR8PjpY5GNdLnaxJrBdZU3sBNkRiaQ6q+XXigvhPQwDm/rodJTAwD9jYNLTEwSCVwJ80xHmYf3iF8Qeiq+qdIRGTYn9iOuO/HXUjcsGnk7wjlxetPHAnblroVdoSQuvdjzaQfc0dnx0gibhpo1O/BDNg9GXmBFzb1sSXlM3eM8+ixJX59mJ/od3hLXye0TVMjtwKrhzfcfq+0Bab33wmp5PaJKGR24bp3I7Hssd144z1lLuWBcyb0hDNidGfngSd066NHvCAbkk6lTrXpwWkAmpPBDPnw2HBFygSNWr08wVzJyNCnjgzlwOrPxEnM21LE15q7p44y+xXXCwKMyAvGS8B9V6cWT0EnPkPPPWHB6OCZkbn34NhAI9XAM2Ci1kjPmvHPTiN+2fgPvzCVNsT6wG9WxysaaYbWAMVU8nnrCrEqafy7gFeQgiYc12o4fr4IRm7OGwgJSYAMvuErzXDCQqvL+3RygF8HnpYTOHbHazKZRo64fuVgMkkqQMjcdn0/qkPyknHc+/BsOJ85rGpe70fqsPlNatiUShQ1x272cT86OD1gspIybBhK7JkxdtPU0zP1GGlTmnnLtz4bn34NhweEOa+M/wBWLxj6uuR+qw6auwZFgMZqyIw3jq4tpJTU2Z/WPLSyEeSYkHEszL/sudoa1CZVdLnowAjBcDYRIEoEpk68iDGWZt/0XG8JnmuLZoDV2Z/eHLW2gkmGcqt3rLpav2dBhcIUVlfM4FWEXbNRtIZUbvWfTQAJHwOAmMPpzxmJ7O2OfCZm9jVugOx9n19xcFPO96tbVzS53PUrCLjy9j1E7M7OjdwfDllxfR+M4MBIPjHqTMKD6+pQDIBgfExIjgwnE2Q1D39z/wDJf//EACkRAAEDBAAFBAIDAAAAAAAAAAEAESAQITFBMGFxkbFRgdHwQMFQYOH/2gAIAQIBAT8Q/hAXAXOdkQ5H4YBJgrpYs1dYA0MAdYqyulyJEx418sCFsHCBsCvlw4YDofqeMH1KIax4LHd4mQGVyyAHE2G7zwHGgRJAuVZL1o47IHR9G/1EaHy3HdWS1Ag3EXGgyIENoYg1EBox9yrgbmVxwVpxEAIxIxS1HOcCAOUTcYgAz5qTPngAJqcIAOIWwMWyDACte6AFziiEy5rnlHFzoRAOigm96RLlB0gYHOIvF1+K6iphCDCTQWoND1+YtDnUXCDy5VA6JaPtlaCs1UHFygDFXxRGXrTIsFC5QA5RkWCmHqvo6w8dTYIMLlWDulo++jSHdMhS0VvGsGFygTlV4c4m4fT4rrZ9tTRi6/NMhTRrd9tU2B6fKAaDwgyQHDAhP7prQtEEbj1/VMgrAPYLWigH9o5JKDrE+CcAAxXtYAMXX5pkIYPa+EAABBsAYmCCAACOguwwuQmmLr80yFOYlAPDiOgAElGKUnHYiQCGKIubLZuO6Jx6/qmQQ8BAC5OgADCLh7nAabPMssQSCe9BlZZJps8cEEguED1tAzki4HusylmSLgeyDOVBepRJJc8O/CITk8IhOFfj+pf/xAAsEAEAAQMCBgICAwEBAQEBAAABEQAhMUFRMGFxgZGhILEQwUDw8dHhUHCA/9oACAEBAAE/EP8A8rKQqYBK0oEnhg+UimiFOv2DWHDo/wB1n06v909d8/oGkkj8rD5CKQILIIT/AOO+PoWTsVCLAyMefkFHw+uCTuL4Kj0/rn2x6rkhIH0fiDb8wbfjlhYX2VNtVs/aKGhVYUnRCeGgpwMzHXHgNMj5FgTNn/4NtFYAjqlihc8F+wu72DrUU/EOzM5ON+PaKkCPYyM6NAZ4jPTMzvPWoIdYh7EWfv8Am6HbHDdcBzaGEzTp7j0OtH8mAQ6B/DCXsAA5jRg2eReg59jpUjHrGw3WBzP5QqFXTZcjg5uw0TJXhdd1lev8d4ouAu91lcyreXcBIchhzO5/HMPKZI4A1oi2VcbB/wABzotj+UfeGCE7n+DyzTsHRBDRP4kIaw3X9G7pR+wCKy5lxzcvT+bYApHYGN855PVataQHPmOjr/CIPkmVNQsNWbD1j29v58N31rP3r1k1Ft/8wv8AnP8AgEkIAAlXYordCm8unm6vbTjOzASqwFNABmZ/E0hDUwlQmAdp/E0NIkiSPGQYytodfPZ7YaWAyBCJkTfjhPqsTIsvpcO7txHgjgZPQyvStJXjeIy9UoNAOjulpdut9i0E2J5Xauiujq6C6ugGwPMogWf4FpAHtNLshpzDVXzGHuhWsLO9Rk78QFGjEDsH67HfjBpBE0ng74Hd0osRzoAIA7cI0bYA6G7yL0toNdP1nVvyKzxqSveOhQOEC5dFu9hoQbXkJ5ZH1ROkrp9rUCTmFQ8H5XJ2VR8lG5ksh9qMW8ECMzfAluTVyMjZjnFzuFZkpKHc+qe0DsvQ9RDyaxyFmHR2eTfhO5AJIEhE2pWCZt87t3w6Q8Qk5EAEq7FBltc1LdAt534T+Oajnkv/AKOlPEIdEO37MtHQgwJObcunkoDbIoPg9nnwweVCSfB9udHUns17WV1tzo08bgdtTrk0aP2zXcC6PZrwr6hL0BjoLeNqWCyBCJkeGb2RIlkx7X8OF1+dBfJs7m2ZzO1Kn20aXe49K/TvtQ9JiGBsBjikXGASJslb4Zdnd2PN2jFStXoTHyJVhXZwTXZu7jlwc4bhLD+iHrwgKwCuga1H3LMXbidiOzgzxckuYoPo1ejUpDCsqvatEcSRcXbfe6YN/wCCMS5Cwmj9Hs0XJ1wq8iNJrdHBhgfZo9eCA43N0veVzotBRAMI5Hbg3bVgkREHrD3wUMmEDdcHV9S1cvgaDQbAWKIksnymZuMbHN+bkn058tGVl5iDuxRgObQJ7UKFzeRHaiGBRCA9ya5f1Z9fPKGh8Zgan2dCopK6Z3HcSybUgNmVksnR8kcGX6IcErfbzwROboTk+0+Dgs8hEDbD2sOjvRPBYEtm6Or2NaACDHx1hhO62GV5FZccRgORj2elMxmULy4q5f6wGKGQB3TxdSSAG6fFLh/rEFqw0QR5ClIKggAczHo9azNGVdbDI8n4pJDRDPZAtl5A5O5pTQJObbF+t5PLg3UZaHJfA9uASsBLpQDQG9E+y8BDHqU/UJe1FyaOUQHlovhgHUv5PQfGeIFIhN3Yav7pyuMLbbQPbrUOm4P7mtjnpRCYjZk5H0HegAAFgMH5AICOR1rEqKCTdMdxRhkPPH+ybnShoGzX2xqf0q384NJNzdaPm/xgUNFwX7D6mmuLPqISm1am3Qt3QfPAMQ3tyXeYpAKBhHf5z4h6bkvqjgLPNuG1tfBDzQ3ZOes54EvHxsVOCbnDzf8ArU222B5DYD/2mRTguI6fWNdbZGoAAgDY+bMwIRJEp+JIThqftoyUmxX7QaqkhgMpuWTp7IficGw4aGC94eKgWtAtrvohwGoqZkPRffzn1No6o/dwJGBvsBLTDXvylIdiChiBHoDw+KZuyBt+uw6O9IYxILZOjq9jWgAAAsBwUERJGpgKIEGV6XJ3NKgMAJbYvPZ5PL4xxYEeZz8oVF6ROoaZBUFNEk++AbwDzRR+gfNVFhzJKT64CIEum7P2p9QjNVAHupx7o7AD6+BkIMBc+Quz0GggQQ1UftWj/LNG+Xm3QOGSoS1MV/J6Wi+VAmEGHwlQNraPUNpiY5/AxpWO4kP3QWwSc0H6pR01lmVpeuBAcQU6sH0/NxhYQ9P+nAijBvcPsCiUwM7Wo+DxCxFmy9FEAXNJIMnFAGiEdP6KKio/oBRjunv8SDRBdpe1prGnsF/ueADtx3D5hDX9YOA0hZ06BQJ3/Pf/AGj4NoPoGqvMLsZ/JoInv6TIT4V/vqf76n++p/vqPw1/WIJeVH5MBAS3w0GrmzmA+3xGJrHX/NKY3AObJ9HAIzciHs+Z/wCrjgFdM13H/KCW/sHR8EEXIear9aVzcEOj/wB/Lj52Ehj8gRu1Ov8A5obl8nmw/b4gE1b++tIRrJjwFhHeDy/NFmxJ34BKdlLYfvJROoQXe+yUfBhEbmAIk9496Z1Hgn9H5NZhiuk0exqMAUiLIEuKYT4pDH5IoHnmJ9g7VC8J0WYKZ8e3waFJIy9A+5o7TA5gj9rwDXgp7r5zk6E53Po4DElCQZS/Skhhk5g/qoXBvuJJ9/BAUMPkg6wnekAG7YMnulrINmx2Toz8Pf8AiUhj8M+Sew+4wVzIugmWrQ++9r4eYQdvgYphGALrWTpHcf3T5AW0RMDwnAQIWUegH2+ZpFvbq+geBKcwDsIfuoeQrzSfqrYpZWWbTyl3+DTqBlhZH1rPRKixiqtgHkWDzDn8Pf8AiUhj8S11VWK3cuOq7UqBZaWg+1PA0WI+G7jNfD6JdqWAKGqgPulPWStgB9cAJBOaAfr5pXv77v7KOAlrkCFrA/bvVmmOLp3O8viji05KWHpomzSIZe/ZuOR1KtPExY6Po6C51vn8e/8AEpDFTJ7lelfwXTrgSJS77uwZXQqVk4UKZehg5HxGaoSNobHmXf8AqnllDJadn7e3AahcuKbB9h+ZJ0SUZExSsjNRoi55ngX3LGZYLHWXcK6pmWGTtSdkRZXxJzGT4kXjTFhy8+w41FtnWVk3HCO5QyHiwJuZOT2SgHEAIYEk+a9/4lIY71shGmXlcAbtYCaIsfXzZfAfBlodCbrAOawd6mx2uazByMdqleSJLiPVd1XgPkFx6oWO7BTZlkcq3eBciTBd0e4cBqMg6As59aycko3jvItiO1h1j5Q2cxHfQ6YoZg0zEPt6y6FIyA0SEY17/wASkMVm6+lgsu0tjB8gC4FFsUczDrO1CTLiJa72jwNBBBwAhYzP6l4d+DbfHIky/Q78HVXWJSw9NHktN4a3In61GhNMhXLXo13zvwPf+JSGPk6RciVvs080RBpcp/c1jyYGQv2MHI4Oi+1hLL824JGyhDImGp0lnuSHm/RODPjsR0/o08bUQclmE/dbRA0E/umnT5+/8SkMfFQZnlC/3DXpWYadlUwQo4Lvp1a7Y34LUFknIDylN/aRlW68KwtnGwGOy3UOEEMAwBytv7XqVvtCJ7ErIkxjZf0DyxQiSMj8ff8AiUhj8qBKwVhHERuo/wADnipHn2VPtoY6sBJP6Nvtjg3osK2QsdzyuGfUmeBkTvStAoGnns5OTwnWOae0TXkv1rT8IWG6wOZRbmwxz1dGTpUEFTYfQ+xPw9/4lIY/BxEZ9DadWKEQ2DbXu6EHWsfczwbrgObQ6ockZ5M9f8RwnmUZWvh0MvIpTg80jK+eIpGyOn9ieS0MIQgyJvwtfOCzb5BpjNvEPpjtvypUkLgr6ZGi7OhIjoftNHrsSGhv+jvUPx3iJEka9/4lIYqGoqISSc7xpGaIWQAFf2tILK8gT6Y62/KjNmddt0uvCZIAJVbBTSA6Jh/si3IN+MWryuPduacracSIpkAdgL0NHS6FfofuO9IxlWdDqfJRQCIaOlte/wDEpDHelzNthIHAw6D1oUQeBd8r+OJYYvpk376uXXjgBw/ALiO9QkQAtDEGzqaPbj+/8SkMcWZb4e8NQ2PbbelvzZlGVf4CHY5YdxNRwlDEDCW+4brR7cPWwYc8TNLINp7RA90Ky2kf3tP91hFqQ7vgcSiBLArHOCkxW0gOqCe6fJxAOXtM8NKgVBeodhq/umkyy0DQGgaH8J6i2cg1DUdqmCJa4H2c2mvyUBVgM0lpYPaks7pT2jJWTMIMc2sWaNi9ge9JVpMq69+CkTYYFk70KDEENO4UjqtR42SlgcQPEzLs0AIIkia/KawtYP6BPimop6aINBt/EndMGEf+cqZeFJMJvs/w/IvDkwG6timXitNXdc9nmiRk7T2M95rSNOPpDihg5b3Xux2ilHktIu657pOdFeGSAbiWfy2kORMpvvf9RTb2lsr/AMNgx/GFERRLiVGCrK4/T761HWWGClnS6F94p88GfGOp5sv8WZ1M+a/2IaaojKjCV7WGHaamFd2QXJp556UlKKrKrl//AJq//9k=;" parent="4R6QqSdhvKCpwx4tjvkI-16" vertex="1">
          <mxGeometry x="916" y="1050" width="80" height="80" as="geometry" />
        </mxCell>
        <mxCell id="FXCXVvDxTQtwc45PbP1s-115" value="Icons" style="" parent="0" />
      </root>
    </mxGraphModel>
  </diagram>
</mxfile>
